<svg xmlns="http://www.w3.org/2000/svg" width="230.344" height="43.774" viewBox="0 0 230.344 43.774">
  <g id="logo-mobile" transform="translate(-21608 2650.371)">
    <path id="Path_5201" data-name="Path 5201" d="M36.977.585H.586V10.85H36.977ZM12.012,8.138c-.175.032-.51-.073-.568.186l-.034.859a.389.389,0,0,1-.083.212.413.413,0,0,1-.385.119c-.185-.01-.371,0-.556,0-.349,0-.753.009-1.1.011-.331,0-.661,0-.992-.008l-.17-.006a.97.97,0,0,0-.267-.02.143.143,0,0,0-.076.051c-.04.046-.067.113-.108.154a.382.382,0,0,1-.26.107.918.918,0,0,1-.518-.182.569.569,0,0,0-.152-.092.851.851,0,0,0-.211-.011l-.243-.005L5.227,9.491,4.055,9.467c-.12,0-.339-.018-.46-.012a1.438,1.438,0,0,1-.221.018c-.136-.014-.305-.14-.292-.29a6.639,6.639,0,0,0,.035-.859.286.286,0,0,1-.006-.046.2.2,0,0,0-.06-.1A.407.407,0,0,0,2.757,8.1s-.584.068-.6-.447c0,0-.1-.55.7-.533a.691.691,0,0,0,.132,0A.158.158,0,0,0,3.1,7.061a.282.282,0,0,0,.033-.132,3.032,3.032,0,0,0,.045-.317l0-.34c0-.393-.01-.786-.011-1.179,0-.177-.048-.356-.042-.533,0-.108-.008-.191-.113-.242a.491.491,0,0,0-.274-.039.692.692,0,0,1-.42-.052.293.293,0,0,1-.153-.215s-.034-.567.344-.6a1.928,1.928,0,0,0,.22,0,.694.694,0,0,0,.333-.074c.134-.074.08-.233.081-.358l.018-.7s.052-.189.344-.172c.081,0,.2.008.282.01.124,0,.365.046.465-.053a.432.432,0,0,0,.078-.116.2.2,0,0,1,.042-.065c.06-.058.41-.013.479.012.085.03.209.08.3.1a2.018,2.018,0,0,0,.2.046A4.547,4.547,0,0,0,6,2.108c.3.009.6,0,.9-.02a.687.687,0,0,1,.23.03,1.335,1.335,0,0,1,.126.083.327.327,0,0,0,.327,0,.377.377,0,0,1,.128-.078,1.931,1.931,0,0,1,.325-.019c.171-.008.354-.01.525-.006.143,0,.277.03.419.046a1.7,1.7,0,0,0,.3.006,2.064,2.064,0,0,0,.526-.094,1.134,1.134,0,0,0,.216-.105c.061-.038.129-.117.208-.105a.393.393,0,0,1,.123.031c.045.024.052.063.08.1a.923.923,0,0,0,.116.116.269.269,0,0,0,.1.075.213.213,0,0,0,.127-.015,1.369,1.369,0,0,1,.473-.008c.167.018.214.175.239.314a2.191,2.191,0,0,1,0,.673s-.036.305.365.291a.768.768,0,0,1,.285.018c.187.064.187.209.2.378a.592.592,0,0,1-.04.273.41.41,0,0,1-.343.266,1.478,1.478,0,0,1-.253.016c-.053,0-.088-.018-.133.019a.4.4,0,0,0-.086.268s0,1.958-.013,2.181c0,0-.047.309.365.292a.484.484,0,0,1,.536.463.465.465,0,0,1-.368.536m11.047,0c-.176.032-.51-.073-.568.186l-.034.859s0,.429-.48.326c-.173,0-.341.005-.514.008-.349,0-.728.009-1.078.011-.33,0-.661,0-.992-.008l-.17-.006a.97.97,0,0,0-.267-.02.143.143,0,0,0-.076.051c-.04.046-.067.113-.108.154a.382.382,0,0,1-.26.107.922.922,0,0,1-.519-.182.546.546,0,0,0-.152-.092.845.845,0,0,0-.21-.011l-.243-.005-1.1-.024-1.172-.024c-.121,0-.339-.018-.46-.012a1.421,1.421,0,0,1-.22.018.294.294,0,0,1-.266-.29,6.65,6.65,0,0,0,.034-.859c-.006-.011,0-.033-.006-.046a.2.2,0,0,0-.06-.1.407.407,0,0,0-.295-.081s-.584.068-.6-.447c0,0-.1-.55.7-.533a.684.684,0,0,0,.131,0,.156.156,0,0,0,.108-.063.283.283,0,0,0,.034-.132c.009-.1.046-.213.044-.317s0-.227,0-.34c-.006-.393-.021-.784-.023-1.177,0-.177-.037-.358-.031-.535,0-.108-.008-.191-.113-.242a.488.488,0,0,0-.273-.039.73.73,0,0,1-.381-.033.365.365,0,0,1-.2-.272.5.5,0,0,1-.016-.209.406.406,0,0,1,.193-.272.8.8,0,0,1,.393-.078.693.693,0,0,0,.334-.074c.134-.074.079-.233.082-.358l.018-.7s.051-.189.343-.172c.08,0,.2.008.282.01.124,0,.339.046.439-.053a.435.435,0,0,0,.078-.116.2.2,0,0,1,.042-.065c.06-.058.41-.013.478.012.086.03.21.08.3.1a2.033,2.033,0,0,0,.2.046,5.2,5.2,0,0,0,.7.064c.3.009.6,0,.9-.02a.69.69,0,0,1,.23.03,1.339,1.339,0,0,1,.126.083.327.327,0,0,0,.327,0,.377.377,0,0,1,.128-.078,1.931,1.931,0,0,1,.325-.019c.171-.008.354-.01.525-.006.143,0,.277.03.418.046a1.709,1.709,0,0,0,.3.006,1.89,1.89,0,0,0,.5-.094.887.887,0,0,0,.179-.105c.061-.038.129-.117.207-.105a.393.393,0,0,1,.123.031c.046.024.051.063.08.1a.88.88,0,0,0,.116.116.258.258,0,0,0,.1.075.212.212,0,0,0,.126-.015,1.373,1.373,0,0,1,.473-.008c.166.018.2.175.223.314a2.191,2.191,0,0,1,0,.673s.018.32.419.307a.748.748,0,0,1,.285.018c.188.065.188.209.2.379a.6.6,0,0,1-.04.272.407.407,0,0,1-.343.265,1.565,1.565,0,0,1-.267,0c-.053,0-.127-.018-.173.019a.392.392,0,0,0-.085.268s.025,1.958.008,2.181c0,0-.047.309.365.292a.484.484,0,0,1,.536.463.465.465,0,0,1-.368.536M35.43,7.744c-.067.338-.552.342-.814.381-.1.015-.117.113-.144.2-.094.308.171,1.1-.33,1.138l-.3.022c-.214.014-.412.043-.632.047-.27,0-.49.012-.759.017-.547.011-1.094.017-1.64,0a2.757,2.757,0,0,0-.618.063s-.377.338-.686.084c-.062-.05-.157-.153-.236-.171a.223.223,0,0,0-.055,0c-.371.005-.74,0-1.11.008-.513.006-.956.014-1.468.022-.273,0-.539.022-.812.02-.128,0-.443.005-.482-.163a4.227,4.227,0,0,1-.052-.966s.037-.253-.118-.27c-.12-.013-.217-.02-.337-.032a.6.6,0,0,1-.355-.094.565.565,0,0,1-.181-.3A.483.483,0,0,1,24.39,7.4a.418.418,0,0,1,.25-.158,1.158,1.158,0,0,1,.3-.03c.072,0,.177.026.242-.013.09-.054.069-.216.078-.3s.013-.2.014-.3c0-.2-.009-.406-.006-.61,0-.387.015-.777.008-1.165,0-.034,0-.072,0-.106-.032-.248,0-.243-.25-.233a1.55,1.55,0,0,1-.422-.08.379.379,0,0,1-.284-.281.487.487,0,0,1,.034-.373s.119-.38.667-.261c0,0,.25.084.285-.136l0-.8a.237.237,0,0,1,.025-.136.363.363,0,0,1,.128-.119.483.483,0,0,1,.19-.077.929.929,0,0,1,.209.028.715.715,0,0,0,.416-.051.249.249,0,0,0,.1-.1s.189-.373.342-.119c0,0,.074.3.965.27.274-.021.549-.039.823-.053a4.209,4.209,0,0,1,.7,0c.232.026.419.158.638.193.065.011.1-.056.139-.094a.293.293,0,0,1,.154-.069,2.328,2.328,0,0,1,.348-.046,2.727,2.727,0,0,1,.352.023,10.133,10.133,0,0,0,1.074.06,1.927,1.927,0,0,0,.947-.217c.033-.019.057-.044.1-.044a.7.7,0,0,1,.266.049.709.709,0,0,1,.157.055.422.422,0,0,1,.081.046c.017.012.039.044.059.051h.013l.406-.011.135,0a.459.459,0,0,1,.293.1.348.348,0,0,1,.1.122.388.388,0,0,1,.024.167,3.559,3.559,0,0,1-.015.382,1.421,1.421,0,0,0,0,.279c.007.068.019.178.1.2a2.464,2.464,0,0,1,.476.049s.412.186.36.424c-.077.36-.318.422-.652.477-.072.012-.105,0-.155.048-.167.152-.118.558-.123.76l-.027,1.169a4.823,4.823,0,0,1-.014.594s-.075.237.285.2c0,0,.531-.05.686.237a.658.658,0,0,1,.026.364" transform="translate(21607.859 -2650.511)" fill="#a10b21"></path>
    <path id="Path_5202" data-name="Path 5202" d="M7.727,25.563a20.876,20.876,0,0,1,4.021,2.467,23.879,23.879,0,0,1,2.507,2.292A24.125,24.125,0,0,0,12.038,38.9a17.618,17.618,0,0,0-7.225-5.8,18.593,18.593,0,0,1,2.914-7.544" transform="translate(21606.85 -2656.481)" fill="#a10b21"></path>
    <path id="Path_5203" data-name="Path 5203" d="M22.524,36.724a24.072,24.072,0,0,0-4.6-7.206,24.086,24.086,0,0,1,1.8-3.106,24.686,24.686,0,0,1,3.209-3.864,24.728,24.728,0,0,1,3.209,3.864,24.17,24.17,0,0,1,1.794,3.106,24.073,24.073,0,0,0-4.6,7.206q-.211.518-.4,1.046-.188-.527-.4-1.046" transform="translate(21603.717 -2655.76)" fill="#a10b21"></path>
    <path id="Path_5204" data-name="Path 5204" d="M31.771,30.322a23.876,23.876,0,0,1,2.507-2.292A20.909,20.909,0,0,1,38.3,25.562a18.577,18.577,0,0,1,2.913,7.544,17.623,17.623,0,0,0-7.225,5.8,24.113,24.113,0,0,0-2.217-8.582" transform="translate(21600.406 -2656.481)" fill="#a10b21"></path>
    <path id="Path_5205" data-name="Path 5205" d="M15.153,49.161a24.079,24.079,0,0,1-.331-4.244,28.274,28.274,0,0,1,2.711,6.242q-.739-.563-1.476-1.193-.46-.393-.9-.8" transform="translate(21604.457 -2661.107)" fill="#dd0021"></path>
    <path id="Path_5206" data-name="Path 5206" d="M24.2,53.908q-.412-.192-.826-.407a23.7,23.7,0,0,1,.826-9.045,23.7,23.7,0,0,1,.826,9.045q-.414.216-.826.407" transform="translate(21602.443 -2660.997)" fill="#dd0021"></path>
    <path id="Path_5207" data-name="Path 5207" d="M32.083,49.965q-.736.63-1.476,1.193a28.274,28.274,0,0,1,2.71-6.242,23.935,23.935,0,0,1-.331,4.244q-.444.411-.9.8" transform="translate(21600.686 -2661.107)" fill="#dd0021"></path>
    <path id="Path_5208" data-name="Path 5208" d="M16.981,32.279a23.611,23.611,0,0,1,4.4,6.939q.317.775.578,1.57a24.171,24.171,0,0,0-1.063,9.549,26.23,26.23,0,0,1-2.746-1.749,28.646,28.646,0,0,0-3.3-7.484,23.7,23.7,0,0,1,2.132-8.825" transform="translate(21604.451 -2658.086)" fill="#c3001f"></path>
    <path id="Path_5209" data-name="Path 5209" d="M25.381,39.219a23.584,23.584,0,0,1,4.4-6.939,23.674,23.674,0,0,1,2.13,8.825,28.63,28.63,0,0,0-3.3,7.483,26.328,26.328,0,0,1-2.746,1.75A24.151,24.151,0,0,0,24.8,40.789q.261-.8.578-1.571" transform="translate(21602.072 -2658.087)" fill="#c3001f"></path>
    <path id="Path_5210" data-name="Path 5210" d="M5.155,36.551,5,36.205a16.846,16.846,0,0,1,7.048,5.959,24.394,24.394,0,0,0,.231,4.415A33.419,33.419,0,0,1,5.155,36.551" transform="translate(21606.805 -2659.025)" fill="#c3001f"></path>
    <path id="Path_5211" data-name="Path 5211" d="M34.429,46.579a24.386,24.386,0,0,0,.231-4.415A16.849,16.849,0,0,1,41.708,36.2q-.078.174-.157.346a33.419,33.419,0,0,1-7.122,10.029" transform="translate(21599.771 -2659.024)" fill="#c3001f"></path>
    <path id="Path_5212" data-name="Path 5212" d="M36.729,20.107H.833a32.356,32.356,0,0,1-.248-3.548v-1.9H36.976v1.9a32.59,32.59,0,0,1-.247,3.552" transform="translate(21607.859 -2653.875)" fill="#fff"></path>
    <path id="Path_5213" data-name="Path 5213" d="M44.474,8.109c0-.153-.531-.135-.531-.135-.429.018-.388-.254-.388-.254s.051-2.3.017-2.625a.315.315,0,0,1,.24-.372l.371-.034c.094,0,.18.009.247-.072a.19.19,0,0,0-.011-.288,1.031,1.031,0,0,0-.558-.11.342.342,0,0,1-.223-.091.434.434,0,0,1-.081-.262,1.118,1.118,0,0,1,.04-.3.743.743,0,0,0,0-.259,1.369,1.369,0,0,0-.056-.247.115.115,0,0,0-.121-.068c-.068,0-.132.02-.2.016a.348.348,0,0,0-.056,0c-.062.007-.079.065-.059.118s.059.086.081.132a1.291,1.291,0,0,1,.059.593l0,.573q0,.572,0,1.143l0,.9v.686c0,.167,0,.334,0,.5,0,.048,0,.1,0,.145,0,.146,0,.291,0,.438s-.026.283-.03.426c0,.112,0,.224-.006.336a.851.851,0,0,1-.053.305.178.178,0,0,1-.068.1.5.5,0,0,1-.085.032l-.1.037a.856.856,0,0,1-.2.054,1.948,1.948,0,0,1-.266.011c-.121,0-.195-.008-.315-.02,0,0-2.007.051-2.144.018a.641.641,0,0,0-.343.068c-.068.237.206.271.206.271C40.286,9.837,43,9.854,43,9.854c.038,0,.077,0,.117,0a.611.611,0,0,0,.257-.053.318.318,0,0,0,.168-.218.688.688,0,0,0,0-.088v-.2a2.793,2.793,0,0,1,.021-.319c.012-.109.024-.217.033-.326a.117.117,0,0,1,.056-.1.656.656,0,0,1,.328-.081c.084-.005.167,0,.249-.006a.244.244,0,0,0,.24-.356" transform="translate(21598.533 -2651.087)" fill="#fff"></path>
    <path id="Path_5214" data-name="Path 5214" d="M38.831,11.287a.411.411,0,0,0-.275.523.322.322,0,0,0,.412.229c.172-.033.154-.18.154-.441s-.291-.311-.291-.311" transform="translate(21598.789 -2653.069)" fill="#fff"></path>
    <path id="Path_5215" data-name="Path 5215" d="M39.851,11.174c.085-.017,2.672-.017,2.672-.017.292.017.259-.152.259-.152l-.241-.272c-.059-.062-.124-.122-.207-.068a.734.734,0,0,1-.221.119c-.043.01-.043.005-.084.017-.014,0,0,0-.189.018-.485.044-2.04-.018-2.04-.018-.12-.033-.428.169-.428.169-.051.288.48.2.48.2" transform="translate(21598.592 -2652.916)" fill="#fff"></path>
    <path id="Path_5216" data-name="Path 5216" d="M33.947,8.947c0,.288.154.1.154.1a.6.6,0,0,0,.226-.39,2.979,2.979,0,0,0,.008-.473q0-.261,0-.522l0-.694c0-.263,0-.527.005-.789s0-.542.005-.813c0-.253,0-.507.005-.76l0-.635c0-.145,0-.291,0-.436,0-.053,0-.107,0-.161.017-.2-.1-.2-.1-.2a.785.785,0,0,0-.248.559Z" transform="translate(21599.887 -2651.13)" fill="#fff"></path>
    <path id="Path_5217" data-name="Path 5217" d="M36.677,9.585a.565.565,0,0,0-.126-.044.911.911,0,0,0-.193-.014c-.219-.006-.44-.005-.661,0-.288,0-.576.005-.864.01-.374,0-.676,0-1.049.021-.061,0-.122.005-.183.014a.294.294,0,0,1-.15-.005.183.183,0,0,1-.1-.107.565.565,0,0,1-.024-.2v-.4c0-.376-.015-.752,0-1.127.009-.261.008-.522.011-.782q.007-.446.009-.893c0-.207-.008-.412-.011-.619,0-.223,0-.447.007-.669,0-.1,0-.205.005-.307,0-.151,0-.3.007-.454,0-.066,0-.133,0-.2a.951.951,0,0,1,.041-.327,1.3,1.3,0,0,1,.152-.3.1.1,0,0,0,.018-.037c.014-.089-.277-.114-.333-.1-.105.027-.128.195-.144.282a3.019,3.019,0,0,0-.063.607.6.6,0,0,1-.015.11.31.31,0,0,1-.269.246,1.984,1.984,0,0,1-.223.016c-.118,0-.191-.024-.291.037-.075.046-.18.172-.143.273a.342.342,0,0,0,.3.193c.158.018.233-.018.39-.006a.263.263,0,0,1,.185.076.545.545,0,0,1,.09.384c0,.019,0,.04,0,.059-.007.275-.018.551-.018.826-.011.543-.043,1.091-.023,1.633a.229.229,0,0,1-.1.228.811.811,0,0,1-.378.027.709.709,0,0,0-.357.094.208.208,0,0,0-.086.086.168.168,0,0,0,.007.144.3.3,0,0,0,.219.155.831.831,0,0,0,.179.014.75.75,0,0,1,.276.016.32.32,0,0,1,.214.18.976.976,0,0,1,.031.25,3.109,3.109,0,0,0,.059.748.246.246,0,0,0,.062.11.189.189,0,0,1,.03.017c.051.1.9.05.9.05.147-.008.276.009.424.011s.249,0,.395,0l.168,0c.254-.006.509-.018.763-.033s.495-.045.742-.053c.062,0,.123-.008.154-.069a.119.119,0,0,0-.044-.163" transform="translate(21600.332 -2651.097)" fill="#fff"></path>
    <path id="Path_5218" data-name="Path 5218" d="M37.293,10.854l-2.269-.033c-.393.017-.446-.237-.446-.237l-.137.119c-.065.079-.22.256-.168.376.032.075.116.043.177.04.253-.014.459,0,.71,0l.855.011.815.011.361,0c.308.068.342-.135.342-.135.017-.135-.24-.152-.24-.152" transform="translate(21599.811 -2652.901)" fill="#fff"></path>
    <path id="Path_5219" data-name="Path 5219" d="M43.566,8.64a1.541,1.541,0,0,0,.1.19,1.982,1.982,0,0,0,.16.186c.031.038.1.1.129.026a.7.7,0,0,0,0-.246c0-.176,0-.351,0-.526,0-.2,0-.409,0-.613,0-.244,0-.488.006-.732,0-.26,0-.52.005-.78s0-.5.005-.756c0-.22,0-.441,0-.661q0-.245,0-.491c0-.037,0-.072,0-.109,0-.1-.008-.195-.01-.292s.009-.186,0-.279a.966.966,0,0,0-.15-.33.259.259,0,0,0-.037-.071s-.208-.169-.208.1c0,.054,0,.109,0,.163,0,.147,0,.294,0,.44,0,.214,0,.428,0,.642,0,.256,0,.513-.005.769,0,.274,0,.549-.006.823s0,.534,0,.8c0,.235,0,.47,0,.705,0,.178,0,.356,0,.535a3.838,3.838,0,0,1-.014.386.162.162,0,0,0,0,.054.248.248,0,0,0,.021.065" transform="translate(21597.594 -2651.113)" fill="#fff"></path>
    <path id="Path_5220" data-name="Path 5220" d="M34.75,8.316a.329.329,0,0,0,.053.214.363.363,0,0,0,.158.113.852.852,0,0,0,.33.068c.161.009.32.01.482.01l.906,0c.168,0,.336-.005.5-.008a1.109,1.109,0,0,1,.352.037c.08.022.234.06.254-.059.086-.508-.011-1.5.017-1.71a4.494,4.494,0,0,0,.035-.486.039.039,0,0,1-.012-.019c-.017-.067-.132-.135-.132-.135-.2,0-.264.5-.264.5.115.422,0,.355,0,.355-.1.136-.409.032-.409.032-.148-.033-.049-.152-.049-.152a.327.327,0,0,0,.23-.237c.083-.118.611-2.306.611-2.306l0-.008c0-.207-.006-.584,0-.733,0-.222.075-.549-.09-.725s-.609-.15-.852-.145c-.2,0-.395.014-.592.029a4.745,4.745,0,0,1-1.044-.021c-.143-.013-.152-.071-.279-.116-.058-.021-.233-.025-.191.086a1.627,1.627,0,0,1,.043.53c0,.2,0,.407-.006.61-.031.505-.04,1.011-.042,1.517s0,1.023.006,1.534c0,.256,0,.511,0,.767,0,.155-.008.309-.011.463m.606-3.42.154-.407.094-.017a1.152,1.152,0,0,0,.291.136h.779l.291-.136s.119.017.085.17c0,0,.052.39-.171.441a.4.4,0,0,1-.205-.237s-.223-.118-.24.272a13.382,13.382,0,0,1-.014,1.422L36.4,6.81a.625.625,0,0,0,.171.254s.087.237-.119.22a3.975,3.975,0,0,0-.5-.017s-.24,0,0-.305a.7.7,0,0,0,.068-.423s0-1.422.035-1.508c0,0,.034-.186-.086-.237l-.2.008-.237.245s-.052.254-.172-.017Z" transform="translate(21599.695 -2651.04)" fill="#fff"></path>
    <path id="Path_5221" data-name="Path 5221" d="M39.144,4.549c.3.893.581,2.2.592,2.2a1.2,1.2,0,0,0,.231.307c.279.1,0,.186,0,.186a1.421,1.421,0,0,1-.491-.022c-.2-.035-.116-.1-.116-.1.082-.084.017-.422.017-.422a1.15,1.15,0,0,0-.164-.355c-.066-.033-.167.119-.167.119l-.019.006.022.549a10.43,10.43,0,0,1,0,1.575c0,.219.086.237.086.237a1.9,1.9,0,0,1,.788-.169l.083,0,.143,0,.135,0c.407,0,.814.024,1.22.024a1.434,1.434,0,0,0,.572-.059.361.361,0,0,0,.179-.142.327.327,0,0,0,.018-.231,4.3,4.3,0,0,1-.021-.534c0-.184,0-.368.005-.553.01-.232.014-.466.018-.7q.007-.427.009-.853c0-.241,0-.482,0-.723,0-.1,0-.2,0-.3a14.056,14.056,0,0,1,0-1.711c0-.078-.076-.122-.141-.14-.094-.027-.135.043-.215.081a1.935,1.935,0,0,1-.276.11,1.062,1.062,0,0,1-.311.027c-.106,0-.212,0-.317,0l-.682.01a1.308,1.308,0,0,1-.212-.006c-.067-.01-.13-.037-.2-.053a1.116,1.116,0,0,0-.525.027c-.107.029-.275.1-.295.226a2.9,2.9,0,0,0-.006.373c0,.2-.009.586-.014.861a.464.464,0,0,1,.046.149m1.211.725a.614.614,0,0,1,.669-.643c.052.084.274,0,.274,0,.24-.186.275,0,.275,0l.033.253c.035.305-.1.305-.1.305a1.029,1.029,0,0,1-.275-.237.363.363,0,0,0-.582.237c.084.288.463.457.463.457a1.337,1.337,0,0,1,.584.494.715.715,0,0,1-.088.877.565.565,0,0,1-.827.072l-.123-.035c-.257.221-.257,0-.257,0-.051-.559.068-.593.068-.593.1-.034.189.152.189.152-.017.153.226.3.226.3.565.288.623-.288.623-.288.034-.322-.5-.575-.5-.575-.72-.306-.651-.78-.651-.78" transform="translate(21598.672 -2651.025)" fill="#fff"></path>
    <path id="Path_5222" data-name="Path 5222" d="M38.517,6.785l.078.154s.162.011.28.015l.018,0v0l.064,0c.1,0,.114-.084.114-.169a5.124,5.124,0,0,0-.18-.591l-.082-.1-.164.117c-.016.084-.127.573-.127.573" transform="translate(21598.795 -2651.828)" fill="#fff"></path>
    <path id="Path_5223" data-name="Path 5223" d="M19.517,9.017c.021-.012.1-.024.116-.038.269-.2.218-.549.221-.845,0-.407.056-.815.06-1.224q.007-.688.014-1.377C19.934,5,19.9,4.461,19.9,3.924c0-.143,0-.285,0-.428a3.25,3.25,0,0,0-.027-.439c-.326-.034-.4.6-.4.6l-.039,5.153c0,.241.081.206.081.206" transform="translate(21603.355 -2651.102)" fill="#fff"></path>
    <path id="Path_5224" data-name="Path 5224" d="M21.812,9.5a1.235,1.235,0,0,0-.4-.04l-.409,0-.862-.008-.813-.008h-.062a.723.723,0,0,1-.33-.056.428.428,0,0,1-.147-.362c0-.027,0-.053,0-.079,0-.636.037-1.27.04-1.906s-.021-1.275-.018-1.912c0-.131,0-.262,0-.393s0-.26,0-.392,0-.255,0-.382v0c0-.07,0-.139.008-.209,0-.04.007-.078.011-.118a2.493,2.493,0,0,1,.119-.552.232.232,0,0,0,.02-.106c-.014-.1-.186-.131-.276-.092-.2.085-.228.352-.215.568s.027.47-.143.6a.725.725,0,0,1-.425.1c-.148.007-.468.089-.372.317a.221.221,0,0,0,.142.143,1.33,1.33,0,0,0,.393.027.386.386,0,0,1,.343.16.476.476,0,0,1,.037.227c0,.632.03,1.265.024,1.9,0,.142,0,.283,0,.425a.935.935,0,0,1-.086.391.371.371,0,0,1-.3.164,2.141,2.141,0,0,0-.357.036.278.278,0,0,0-.218.251c.008.154.19.234.345.243A.857.857,0,0,1,18.3,8.5a.61.61,0,0,1,.169.53c0,.129,0,.259-.006.388a.377.377,0,0,0,.057.254c.069.081.231.088.338.088l2.889,0c.075,0,.166-.008.2-.075.049-.092-.07-.161-.141-.186" transform="translate(21603.816 -2651.055)" fill="#fff"></path>
    <path id="Path_5225" data-name="Path 5225" d="M22.727,10.947a.3.3,0,0,0-.228-.119c-.043,0-.087,0-.131,0l-.406,0c-.3,0-.6,0-.9-.007a1.958,1.958,0,0,1-.306-.014s-.5-.085-.569-.1c0,0-.17-.069-.324.223a.183.183,0,0,0,0,.127c.032.08.126.069.2.065.188-.012.556,0,.743,0h.742c.1,0,.205,0,.309,0a2.149,2.149,0,0,1,.253.005c.064.01.127.027.189.04a.746.746,0,0,0,.286.051.349.349,0,0,0,.151-.078c.066-.059.046-.132-.008-.191" transform="translate(21603.254 -2652.929)" fill="#fff"></path>
    <path id="Path_5226" data-name="Path 5226" d="M23.981,11.31l-.037,0a.373.373,0,0,0-.308.434.368.368,0,0,0,.377.326A.3.3,0,0,0,24.167,12a.324.324,0,0,0,.086-.4c-.049-.1-.135-.288-.272-.289" transform="translate(21602.352 -2653.074)" fill="#fff"></path>
    <path id="Path_5227" data-name="Path 5227" d="M24.845,11.21a2.609,2.609,0,0,1,.318-.008l.708-.006a11.224,11.224,0,0,1,1.165,0c.063.007.269.036.269-.081s-.271-.326-.271-.326a.306.306,0,0,0-.2-.019c-.032,0-.065.007-.1.012a.957.957,0,0,0-.12.046.628.628,0,0,1-.081.021,2.041,2.041,0,0,1-.2.029,6.729,6.729,0,0,1-.722.015q-.243-.006-.485-.021c-.154-.008-.32-.033-.475-.033a.273.273,0,0,0-.154.076.353.353,0,0,0-.1.1.054.054,0,0,0-.006.02.167.167,0,0,0,.035.119c.065.08.193.076.286.072.043,0,.085-.01.129-.016" transform="translate(21602.17 -2652.945)" fill="#fff"></path>
    <path id="Path_5228" data-name="Path 5228" d="M28.458,7.9c-.412.011-.377-.412-.377-.412.025-.32.013-.648.02-.969q.009-.453.019-.906c0-.12-.038-.24-.036-.359a2.077,2.077,0,0,1,.008-.4c.056-.233.355-.157.537-.15h.022c.13,0,.283-.03.311-.182a.273.273,0,0,0-.2-.323,1.669,1.669,0,0,0-.373-.048c-.1,0-.227-.024-.258-.139a.727.727,0,0,1-.009-.152c0-.056,0-.113-.007-.169,0-.115-.007-.231,0-.347a.586.586,0,0,0-.021-.276.241.241,0,0,0-.17-.13.406.406,0,0,0-.12-.02.184.184,0,0,0-.145.062.188.188,0,0,0-.043.11.157.157,0,0,0,.043.107.343.343,0,0,1,.06.108,1.5,1.5,0,0,1,.032.5q0,.26-.011.521-.01.475-.013.951c-.008,2.062-.053,3.935-.053,3.935a.411.411,0,0,1-.065.267c-.062.068-.127.024-.206.025H27.3l-.3,0-.849.006-.789.005-.365,0c-.24,0-.24.138-.24.138,0,.077.083.123.148.13.116.014.249,0,.365.006l.377.005c.245,0,.524.007.768.006.291,0,.6,0,.888-.006l.376,0c.361.052.344-.429.344-.429a2.656,2.656,0,0,1,.12-.893,1.15,1.15,0,0,1,.451-.052.836.836,0,0,0,.265-.021.184.184,0,0,0,.107-.11.215.215,0,0,0,.016-.142c-.064-.25-.326-.247-.53-.241" transform="translate(21602.082 -2651.069)" fill="#fff"></path>
    <path id="Path_5229" data-name="Path 5229" d="M27.885,6.111c0,.281,0,.562,0,.843,0,.244,0,.489,0,.733l0,.543a.869.869,0,0,0,.036.38,1.161,1.161,0,0,0,.215.33c.059.056.108.093.113-.015.009-.181.019-.364.022-.546l.007-.558c0-.249.007-.5.011-.745,0-.282.008-.564.011-.845s-.014-.572-.01-.858c0-.261-.014-.535-.011-.8,0-.209.005-.4.008-.613,0-.116.013-.234.011-.35a.985.985,0,0,0-.073-.334c-.035-.1-.047-.259-.154-.3a.189.189,0,0,0-.209.109.093.093,0,0,0-.005.031c0,.2,0,.409,0,.614,0,.228,0,.457,0,.685,0,.273.008.545.008.817,0,.291.03.583.03.874" transform="translate(21601.344 -2651.083)" fill="#fff"></path>
    <path id="Path_5230" data-name="Path 5230" d="M22.409,6.318c.431-.412,0-.79-.068-.893s-.414-.017-.414-.017l-.053.12c.018.378.018.893.018.893a.325.325,0,0,0,.517-.1" transform="translate(21602.771 -2651.656)" fill="#fff"></path>
    <path id="Path_5231" data-name="Path 5231" d="M20.863,8.628c.125.008.345.015.469.019.264.006.527-.021.791-.018.107,0,.212,0,.319.005l.192.007a.3.3,0,0,1,.178.056c.1.06.151-.009.157-.1,0,0,.137-4.466.069-5.394,0,0-.017-.394-.31-.412-.221.018-.443.03-.664.039-.13.005-.259.005-.39.007a1.442,1.442,0,0,1-.275-.018c-.19-.036-.466-.1-.652-.152-.1-.028-.415.021-.416.142l-.056,5.513a.8.8,0,0,0,.589.31m.043-4.077c.035-.085.328-.034.328-.034h.724a.791.791,0,0,1,.581.54,1.071,1.071,0,0,1,.005.316.575.575,0,0,1-.069.217.787.787,0,0,1-.263.272.8.8,0,0,1-.151.081l-.035.275.479.761c.087.069.069.137.069.137-.069.189-.345,0-.345,0l-.6-.933c-.052-.068-.155.052-.155.052l-.034.533.155.258c.1.137-.069.24-.069.24l-.552-.052c-.1-.052,0-.223,0-.223a.448.448,0,0,0,.156-.31l-.018-1,.018-.721c0-.085-.139-.24-.139-.24-.12-.017-.086-.172-.086-.172" transform="translate(21603.154 -2651.006)" fill="#fff"></path>
    <path id="Path_5232" data-name="Path 5232" d="M24.15,8.771a.094.094,0,0,0,.064.02c.019,0,.031-.017.047-.025a.314.314,0,0,1,.078-.025,3.246,3.246,0,0,1,.615-.08c.2,0,.394.03.591.045a3.153,3.153,0,0,0,.817-.015,1.2,1.2,0,0,0,.26-.065.259.259,0,0,0,.132-.213l0-.291c0-.248.007-.5.009-.745q.007-.5.013-1.008c0-.36-.031-.729-.028-1.09,0-.319,0-.629,0-.949,0-.25,0-.5-.005-.75,0-.166.022-.331.032-.5,0-.069.008-.138.008-.207a.29.29,0,0,0-.009-.115c-.066-.133-.186-.056-.286,0a1.03,1.03,0,0,1-.422.066c-.172.011-.345.014-.519.014-.222,0-.445-.005-.667-.011,0,0-.63-.017-.664.258,0,0-.052,2.593-.035,2.679l-.033,2.182s-.068.752-.069.756c0,.019.053.059.066.067m.865-1.687c.176-.086.229-.395.229-.395v-1.7l-.159-.344c-.052-.137.3-.154.3-.154l.177.033a.542.542,0,0,1,.246.034.2.2,0,0,1-.088.292l-.07.223c-.018.189,0,1.821,0,1.821a1.214,1.214,0,0,0,.175.241c0,.154-.193.12-.193.12l-.51.017c-.158-.017-.106-.189-.106-.189" transform="translate(21602.244 -2651.014)" fill="#fff"></path>
    <path id="Path_5233" data-name="Path 5233" d="M9.392,11.31l-.037,0a.373.373,0,0,0-.308.434.368.368,0,0,0,.377.326A.3.3,0,0,0,9.578,12a.324.324,0,0,0,.086-.4c-.049-.1-.135-.288-.272-.289" transform="translate(21605.838 -2653.074)" fill="#fff"></path>
    <path id="Path_5234" data-name="Path 5234" d="M4.956,9.017c.021-.012.124-.024.142-.038.27-.2.218-.549.221-.845,0-.407.056-.815.06-1.224q.007-.688.014-1.377C5.4,5,5.367,4.461,5.367,3.924c0-.143,0-.285,0-.428a3.251,3.251,0,0,0-.027-.439c-.326-.034-.423.6-.423.6L4.875,8.811c0,.241.081.206.081.206" transform="translate(21606.834 -2651.102)" fill="#fff"></path>
    <path id="Path_5235" data-name="Path 5235" d="M7.293,9.5a.433.433,0,0,0-.212-.039L4.719,9.441a.849.849,0,0,1-.355-.056.427.427,0,0,1-.147-.362c0-.027,0-.054,0-.08,0-.636.037-1.27.04-1.906s-.021-1.275-.018-1.912c0-.131,0-.261,0-.392s0-.262,0-.393,0-.254,0-.382v0c0-.07,0-.139.008-.209,0-.04.006-.079.011-.119a2.519,2.519,0,0,1,.118-.552A.234.234,0,0,0,4.4,2.97c-.013-.1-.186-.132-.275-.093-.2.086-.228.352-.215.568s.027.471-.143.6a.725.725,0,0,1-.425.1c-.148.007-.5.074-.409.3a.3.3,0,0,0,.177.159,1.31,1.31,0,0,0,.394.027.386.386,0,0,1,.342.161.455.455,0,0,1,.037.226c0,.632.031,1.265.026,1.9l0,.425a.942.942,0,0,1-.084.39.378.378,0,0,1-.3.164,2.131,2.131,0,0,0-.356.035.278.278,0,0,0-.219.251c.008.154.191.234.345.243a.859.859,0,0,1,.451.073A.611.611,0,0,1,3.9,9.03c0,.129,0,.259-.006.388a.37.37,0,0,0,.058.253c.068.081.23.088.337.088l2.867,0c.076,0,.167-.008.2-.075A.146.146,0,0,0,7.293,9.5" transform="translate(21607.303 -2651.055)" fill="#fff"></path>
    <path id="Path_5236" data-name="Path 5236" d="M8.168,10.947a.3.3,0,0,0-.229-.119c-.043,0-.088,0-.131,0l-.408,0c-.3,0-.6,0-.9-.007a1.411,1.411,0,0,1-.26-.014s-.5-.085-.573-.1c0,0-.171-.069-.326.223a.183.183,0,0,0,0,.127c.033.08.126.069.2.065.189-.012.558,0,.748,0h.7c.1,0,.207,0,.31,0a2.205,2.205,0,0,1,.256.005c.063.01.127.027.189.04a.753.753,0,0,0,.288.051.347.347,0,0,0,.151-.078c.067-.059.046-.132-.008-.191" transform="translate(21606.727 -2652.929)" fill="#fff"></path>
    <path id="Path_5237" data-name="Path 5237" d="M10.256,11.21a2.609,2.609,0,0,1,.318-.008l.707-.006a11.727,11.727,0,0,1,1.191,0c.062.007.269.036.269-.081s-.272-.326-.272-.326a.3.3,0,0,0-.2-.019c-.032,0-.065.007-.1.012a.957.957,0,0,0-.12.046.57.57,0,0,1-.081.021c-.066.014-.16.022-.228.029a6.729,6.729,0,0,1-.722.015c-.162,0-.323-.011-.486-.021s-.32-.033-.474-.033a.273.273,0,0,0-.154.076.353.353,0,0,0-.1.1.054.054,0,0,0-.006.02.167.167,0,0,0,.035.119c.065.08.193.076.286.072.043,0,.085-.01.129-.016" transform="translate(21605.656 -2652.945)" fill="#fff"></path>
    <path id="Path_5238" data-name="Path 5238" d="M13.6,7.729a.461.461,0,0,1-.047-.238c.025-.313-.011-.626-.006-.939s.023-.628.029-.937c0-.119,0-.239,0-.358a1.96,1.96,0,0,1,.008-.4c.056-.232.3-.172.483-.164h.022c.13,0,.3-.027.33-.179a.289.289,0,0,0-.22-.326,1.251,1.251,0,0,0-.32-.033c-.1,0-.227-.024-.256-.139a.721.721,0,0,1-.011-.151c0-.056,0-.113-.006-.17,0-.116-.007-.231,0-.346a.609.609,0,0,0-.021-.277.273.273,0,0,0-.186-.131.427.427,0,0,0-.12-.019.182.182,0,0,0-.145.063.191.191,0,0,0-.043.109.156.156,0,0,0,.044.107.358.358,0,0,1,.059.108,1.483,1.483,0,0,1,.032.5c0,.174-.007.348-.01.521-.006.317-.012.635-.014.951-.008,2.063-.09,3.935-.09,3.935,0,.1,0,.265-.116.3a.331.331,0,0,1-.11,0c-.425-.03-.884,0-1.311,0l-.789.005-.365,0c-.24,0-.24.137-.24.137,0,.078.084.124.149.132.116.012.249,0,.365.005l.377.005c.244,0,.524.008.768.007.291,0,.621,0,.912-.007.142,0,.283,0,.425,0,.23-.006.314-.234.326-.432a3.417,3.417,0,0,1,.107-.858.124.124,0,0,1,.013-.029c.045-.064.2-.056.273-.059s.119,0,.179,0a.89.89,0,0,0,.266-.021.186.186,0,0,0,.106-.112.214.214,0,0,0,.017-.141c-.108-.423-.685-.073-.861-.416" transform="translate(21605.568 -2651.069)" fill="#fff"></path>
    <path id="Path_5239" data-name="Path 5239" d="M13.581,8.94c.059.056.109.093.113-.015.009-.183.02-.364.022-.546s.005-.372.007-.559c0-.248.008-.5.01-.745,0-.282.008-.563.012-.845s.01-.577.013-.863c0-.262,0-.53,0-.792,0-.208.005-.4.008-.613,0-.116.012-.233.011-.35a.985.985,0,0,0-.073-.333c-.035-.1-.047-.259-.154-.3a.188.188,0,0,0-.209.11.086.086,0,0,0-.005.03c0,.2,0,.409,0,.614l0,.686c0,.272.008.543.008.817,0,.29-.007.583-.008.874s0,.561,0,.842l0,.734,0,.543a.863.863,0,0,0,.037.38,1.169,1.169,0,0,0,.215.33" transform="translate(21604.814 -2651.082)" fill="#fff"></path>
    <path id="Path_5240" data-name="Path 5240" d="M6.336,8.628c.124.009.3.016.422.019.263.007.527-.021.789-.018.107,0,.214,0,.32.005l.19.006a.306.306,0,0,1,.18.056c.094.061.149-.008.156-.1,0,0,.138-4.466.068-5.394,0,0-.017-.395-.31-.412-.22.017-.442.03-.664.038-.129,0-.259.006-.389.007a1.458,1.458,0,0,1-.275-.018c-.19-.035-.419-.1-.6-.152-.1-.028-.414.021-.416.142L5.747,8.319a.8.8,0,0,0,.589.309m-.155-4.1.635.018s.206.175-.068.368a9.393,9.393,0,0,0,.395,1.355s.1.4.223.105L7.71,5.123l-.1-.369s-.1-.176.051-.193c0,0,.361-.036.412.105L7.916,5a14.719,14.719,0,0,1-.584,2.057s-.035.352-.326.07c0,0-.67-2.162-.7-2.233l-.223-.158s-.138-.193.1-.212" transform="translate(21606.627 -2651.006)" fill="#fff"></path>
    <path id="Path_5241" data-name="Path 5241" d="M9.561,8.772a.1.1,0,0,0,.064.02c.02,0,.031-.017.047-.025a.316.316,0,0,1,.078-.026,3.193,3.193,0,0,1,.615-.079c.2,0,.394.029.592.044a3.315,3.315,0,0,0,.842-.015,1.221,1.221,0,0,0,.26-.064.261.261,0,0,0,.132-.214l0-.291c0-.249.006-.5.009-.745,0-.336.008-.672.012-1.009,0-.359.006-.729.01-1.089,0-.32,0-.629,0-.949,0-.25,0-.5-.006-.75,0-.167.022-.331.033-.5,0-.068.008-.138.008-.206a.282.282,0,0,0-.01-.116c-.065-.132-.222-.055-.323,0a1.151,1.151,0,0,1-.447.066c-.173.011-.346.014-.519.014-.223,0-.445-.005-.668-.011,0,0-.63-.017-.664.258,0,0-.051,2.593-.034,2.679L9.564,7.95S9.5,8.7,9.5,8.705s.053.059.065.067m.495-4.206.47-.053c.07.07.662-.017.662-.017.087-.035.139.087.139.087l.087.3c-.087.244-.174.036-.174.036-.035-.1-.384-.174-.384-.174-.3-.035-.261.4-.261.4a.724.724,0,0,0,.053.505c.3.122.4-.088.4-.088.018-.069.175-.052.175-.052a.542.542,0,0,1,0,.453c-.053.087-.384-.122-.384-.122-.3-.018-.279.174-.279.174v.767a.419.419,0,0,0,.139.261c.627.088.679-.192.679-.192.175-.331.227-.1.227-.1.122.627-.365.54-.365.54-1.272-.018-1.116-.122-1.116-.122-.122-.018.053-.244.053-.244l.052-.138.017-1.846a.129.129,0,0,0-.052-.1.2.2,0,0,1-.139-.262" transform="translate(21605.73 -2651.014)" fill="#fff"></path>
    <path id="Path_5242" data-name="Path 5242" d="M0,0V13.059A37.639,37.639,0,0,0,3.555,28.084a33.807,33.807,0,0,0,8.669,11.485,27.508,27.508,0,0,0,6.324,4.163l.092.043.094-.043a27.523,27.523,0,0,0,6.324-4.163,33.807,33.807,0,0,0,8.669-11.485,37.655,37.655,0,0,0,3.555-15.029V0ZM21.85,21.023a24.218,24.218,0,0,1,1.8,3.107,24.062,24.062,0,0,0-4.6,7.205q-.212.518-.4,1.046-.186-.529-.4-1.046a24.045,24.045,0,0,0-4.6-7.205,24.169,24.169,0,0,1,1.8-3.107,24.692,24.692,0,0,1,3.208-3.864,24.613,24.613,0,0,1,3.21,3.864m-2.684-3.974h9.706a18,18,0,0,1,1.584,2.029,21.279,21.279,0,0,0-4.048,2.493,24.177,24.177,0,0,0-2.436,2.211,24.677,24.677,0,0,0-1.754-3.01,25.488,25.488,0,0,0-3.052-3.723m-4.1,3.723a24.685,24.685,0,0,0-1.755,3.01,24.168,24.168,0,0,0-2.435-2.211,21.294,21.294,0,0,0-4.048-2.493A18.177,18.177,0,0,1,8.41,17.049h9.706a25.536,25.536,0,0,0-3.052,3.723M6.417,18.889a28.038,28.038,0,0,0-5.609-1.84H7.814a19.95,19.95,0,0,0-1.4,1.84M3.3,26.39A38.4,38.4,0,0,1,.817,17.508a27.469,27.469,0,0,1,5.353,1.758A19.236,19.236,0,0,0,3.3,26.39m3.272-6.936A20.877,20.877,0,0,1,10.6,21.92a23.885,23.885,0,0,1,2.507,2.292A24.114,24.114,0,0,0,10.888,32.8,17.614,17.614,0,0,0,3.663,27a18.591,18.591,0,0,1,2.914-7.544M3.96,27.9c-.053-.115-.105-.231-.157-.345a16.839,16.839,0,0,1,7.047,5.959,24.394,24.394,0,0,0,.232,4.415A33.392,33.392,0,0,1,3.96,27.9M12.515,39.23q-.459-.393-.9-.8a24.145,24.145,0,0,1-.33-4.244,28.274,28.274,0,0,1,2.71,6.242q-.739-.564-1.476-1.193M14.6,40.874a28.675,28.675,0,0,0-3.3-7.484,23.682,23.682,0,0,1,2.131-8.825,23.6,23.6,0,0,1,4.4,6.939c.212.517.4,1.042.578,1.571a24.185,24.185,0,0,0-1.063,9.549,26.235,26.235,0,0,1-2.746-1.75m4.869,2q-.413.215-.826.407-.411-.193-.825-.407a23.728,23.728,0,0,1,.825-9.045,23.685,23.685,0,0,1,.826,9.045m.473-.253a24.186,24.186,0,0,0-1.064-9.549c.174-.529.366-1.054.578-1.571a23.6,23.6,0,0,1,4.4-6.939,23.682,23.682,0,0,1,2.131,8.825,28.65,28.65,0,0,0-3.3,7.484,26.316,26.316,0,0,1-2.746,1.75m5.732-4.2q-.445.411-.9.8-.736.631-1.475,1.193A28.238,28.238,0,0,1,26,34.181a24.072,24.072,0,0,1-.331,4.244M33.322,27.9A33.406,33.406,0,0,1,26.2,37.926a24.4,24.4,0,0,0,.232-4.415,16.839,16.839,0,0,1,7.047-5.959c-.053.115-.1.231-.157.345m-6.928,4.9a24.1,24.1,0,0,0-2.217-8.583,23.952,23.952,0,0,1,2.507-2.292,20.908,20.908,0,0,1,4.022-2.468A18.567,18.567,0,0,1,33.619,27a17.619,17.619,0,0,0-7.225,5.8m7.584-6.406a19.249,19.249,0,0,0-2.865-7.124,27.477,27.477,0,0,1,5.352-1.758,38.423,38.423,0,0,1-2.487,8.882m-3.113-7.5a19.9,19.9,0,0,0-1.4-1.84h7.006a28,28,0,0,0-5.609,1.84m5.971-5.838a32.649,32.649,0,0,1-.247,3.552H.693a32.759,32.759,0,0,1-.247-3.549v-1.9H36.837ZM.446.445H36.837V10.71H.446Z" transform="translate(21608 -2650.371)" fill="#050605"></path>
    <path id="Path_5243" data-name="Path 5243" d="M35.717,5.574l.238-.246.2-.008c.119.051.085.237.085.237-.034.085-.034,1.508-.034,1.508a.706.706,0,0,1-.068.423c-.24.305,0,.305,0,.305a3.975,3.975,0,0,1,.5.017c.206.017.12-.22.12-.22a.631.631,0,0,1-.171-.255l.017-.27a13.537,13.537,0,0,0,.013-1.422c.018-.39.24-.272.24-.272a.4.4,0,0,0,.206.237c.222-.051.172-.441.172-.441.033-.153-.087-.17-.087-.17l-.291.135h-.778A1.134,1.134,0,0,1,35.794,5l-.094.017-.155.407v.135c.12.271.172.017.172.017" transform="translate(21599.504 -2651.566)" fill="#050605"></path>
    <path id="Path_5244" data-name="Path 5244" d="M41.425,6.624s.531.254.5.575c0,0-.057.576-.623.288,0,0-.243-.149-.226-.3,0,0-.085-.186-.188-.152,0,0-.12.033-.068.592,0,0,0,.221.256,0l.123.035a.567.567,0,0,0,.829-.071.715.715,0,0,0,.087-.878,1.332,1.332,0,0,0-.584-.494.918.918,0,0,1-.463-.457.364.364,0,0,1,.583-.237,1.029,1.029,0,0,0,.275.237s.137,0,.1-.305L41.991,5.2s-.035-.186-.275,0c0,0-.223.084-.274,0a.614.614,0,0,0-.669.643s-.068.475.651.78" transform="translate(21598.256 -2651.595)" fill="#050605"></path>
    <path id="Path_5245" data-name="Path 5245" d="M42.85,7.785c-.154-.288-.686-.237-.686-.237-.359.034-.285-.2-.285-.2a5.128,5.128,0,0,0,.014-.593q.014-.586.027-1.17c0-.2-.046-.608.122-.76.051-.046.084-.036.156-.048.334-.055.575-.117.653-.477.051-.237-.361-.424-.361-.424a2.526,2.526,0,0,0-.477-.05c-.081-.021-.093-.13-.1-.2a1.548,1.548,0,0,1,0-.279,3.206,3.206,0,0,0,.015-.382.387.387,0,0,0-.024-.167.355.355,0,0,0-.1-.122.461.461,0,0,0-.292-.1l-.135,0-.406.011H40.96c-.02-.007-.042-.038-.059-.051a.457.457,0,0,0-.08-.046.755.755,0,0,0-.156-.053.668.668,0,0,0-.266-.05.2.2,0,0,0-.1.044,1.925,1.925,0,0,1-.947.217,10.144,10.144,0,0,1-1.074-.06,2.858,2.858,0,0,0-.351-.023,2.232,2.232,0,0,0-.349.047.287.287,0,0,0-.154.068c-.036.039-.074.106-.138.094-.219-.035-.407-.167-.639-.193a4.209,4.209,0,0,0-.7,0c-.274.014-.549.032-.823.053-.891.034-.966-.27-.966-.27-.154-.254-.343.119-.343.119a.248.248,0,0,1-.1.1.713.713,0,0,1-.416.051.99.99,0,0,0-.209-.029.5.5,0,0,0-.189.078.35.35,0,0,0-.128.119.223.223,0,0,0-.025.135l-.005.806c-.034.22-.285.135-.285.135-.548-.119-.667.261-.667.261a.491.491,0,0,0-.034.373.38.38,0,0,0,.284.281,1.556,1.556,0,0,0,.423.08c.253-.011.218-.015.25.232a1.013,1.013,0,0,1,0,.107c.008.387,0,.777-.008,1.164,0,.2.008.407.007.61,0,.1,0,.2-.014.3s.012.25-.078.305c-.065.039-.17.014-.242.014a1.157,1.157,0,0,0-.3.029.42.42,0,0,0-.249.158.48.48,0,0,0-.094.355.562.562,0,0,0,.182.3.6.6,0,0,0,.354.094c.12.013.217.02.337.033.154.016.118.271.118.271a4.267,4.267,0,0,0,.052.965c.04.168.355.161.482.163.272,0,.538-.015.812-.02.511-.008.955-.016,1.467-.022.37,0,.74,0,1.11-.008a.213.213,0,0,1,.054,0,.771.771,0,0,1,.237.171c.309.255.686-.084.686-.084a2.759,2.759,0,0,1,.619-.063c.546.014,1.093.007,1.639,0,.269-.005.49-.012.759-.017.221,0,.42-.032.633-.047l.305-.023c.5-.035.235-.829.33-1.138.026-.088.044-.185.143-.2.262-.04.748-.043.814-.381a.665.665,0,0,0-.025-.364m-2.115.151c0-.178,0-.357,0-.535q0-.353.005-.705c0-.267,0-.534.005-.8s0-.548.005-.822c0-.256,0-.513.005-.769,0-.215,0-.428,0-.642,0-.146,0-.293,0-.439,0-.055,0-.109,0-.163,0-.271.206-.1.206-.1a.256.256,0,0,1,.037.072.96.96,0,0,1,.15.33c.007.093,0,.186,0,.279s.012.195.011.292c0,.037,0,.072,0,.109,0,.163,0,.327,0,.491l0,.66c0,.252,0,.5-.005.756s0,.52-.005.78c0,.244,0,.488-.005.732l0,.613c0,.176-.006.351,0,.526a.688.688,0,0,1,0,.247c-.028.072-.1.011-.129-.027a2,2,0,0,1-.16-.186,1.761,1.761,0,0,1-.1-.189.3.3,0,0,1-.022-.065.22.22,0,0,1,0-.055,3.824,3.824,0,0,0,.014-.386m-3.36-4.879c.019-.129.188-.2.3-.227A1.115,1.115,0,0,1,38.2,2.8c.065.015.128.042.195.053a1.229,1.229,0,0,0,.212.005l.682-.009c.107,0,.212,0,.317,0a1.044,1.044,0,0,0,.311-.028,1.83,1.83,0,0,0,.276-.11c.081-.039.121-.108.215-.081.064.018.145.061.14.14a14.045,14.045,0,0,0,0,1.71v.305q0,.362,0,.722,0,.427-.009.855c0,.232-.008.465-.018.7-.008.185-.008.369,0,.554a4.461,4.461,0,0,0,.021.533.317.317,0,0,1-.018.231.36.36,0,0,1-.178.142,1.421,1.421,0,0,1-.571.059c-.407,0-.814-.024-1.221-.024l-.135,0-.143,0-.083,0a1.9,1.9,0,0,0-.788.169s-.085-.018-.085-.237a10.42,10.42,0,0,0,0-1.574l-.022-.549.018-.007s.1-.151.167-.118a1.143,1.143,0,0,1,.164.355s.066.338-.016.422c0,0-.083.068.115.1a1.418,1.418,0,0,0,.491.023s.279-.084,0-.186a1.188,1.188,0,0,1-.23-.307c-.011,0-.3-1.306-.592-2.2a.462.462,0,0,0-.046-.148c.005-.274.011-.661.014-.861a2.9,2.9,0,0,1,.005-.373M37.27,5.284a5.155,5.155,0,0,1,.181.591c0,.084-.017.169-.116.169l-.063,0v0l-.018,0c-.118,0-.279-.014-.279-.014L36.9,5.872s.112-.488.128-.573l.164-.116Zm-3.232.143c0-.506.011-1.012.043-1.517.006-.2.008-.406.005-.61a1.666,1.666,0,0,0-.043-.529c-.043-.111.132-.107.19-.087.127.046.136.1.28.117a4.744,4.744,0,0,0,1.044.021c.2-.015.394-.025.591-.029.244,0,.676-.045.852.145s.094.5.091.726c0,.149,0,.525,0,.734l0,.007s-.53,2.187-.612,2.307a.326.326,0,0,1-.229.236s-.1.118.049.153c0,0,.31.1.409-.032,0,0,.115.067,0-.355,0,0,.068-.5.265-.5,0,0,.114.068.131.135a.034.034,0,0,0,.013.019,4.687,4.687,0,0,1-.036.486c-.027.212.069,1.2-.017,1.71-.02.119-.174.081-.253.059a1.069,1.069,0,0,0-.352-.037c-.168,0-.336.008-.5.008l-.906,0c-.161,0-.321,0-.482-.011a.851.851,0,0,1-.33-.067.374.374,0,0,1-.158-.113.327.327,0,0,1-.053-.213c0-.154.008-.309.011-.463,0-.256,0-.511,0-.767,0-.511-.008-1.023-.007-1.534m-.3-2.469s.119,0,.1.2c0,.054,0,.109,0,.162,0,.145,0,.29,0,.435l0,.635c0,.253,0,.507,0,.76q0,.406-.005.813c0,.263,0,.526-.005.789l0,.693c0,.174,0,.348,0,.523a2.97,2.97,0,0,1-.008.473.6.6,0,0,1-.226.39s-.154.186-.154-.1l.068-5.216a.785.785,0,0,1,.248-.559m2.9,6.608c-.03.06-.092.068-.154.069-.247.008-.495.037-.742.053s-.508.027-.763.033l-.167,0c-.147,0-.249,0-.395,0s-.277-.02-.425-.011c0,0-.849.051-.9-.05,0,0-.025-.014-.029-.017A.243.243,0,0,1,33,9.538a3.064,3.064,0,0,1-.058-.747,1.022,1.022,0,0,0-.032-.25.321.321,0,0,0-.215-.18.749.749,0,0,0-.276-.016.875.875,0,0,1-.178-.014.3.3,0,0,1-.219-.156.17.17,0,0,1-.008-.144.213.213,0,0,1,.087-.085.7.7,0,0,1,.357-.094.8.8,0,0,0,.378-.028.228.228,0,0,0,.1-.227c-.019-.543.013-1.09.023-1.633,0-.275.011-.551.017-.826,0-.02,0-.04,0-.06a.543.543,0,0,0-.09-.383.266.266,0,0,0-.185-.077c-.157-.011-.231.024-.389.006a.342.342,0,0,1-.3-.193c-.037-.1.068-.227.144-.273.1-.062.173-.033.291-.037a2.2,2.2,0,0,0,.223-.016.313.313,0,0,0,.269-.246.6.6,0,0,0,.014-.11,3.012,3.012,0,0,1,.063-.607c.016-.088.038-.256.143-.282.056-.014.347.01.333.1a.086.086,0,0,1-.018.037,1.345,1.345,0,0,0-.152.3.966.966,0,0,0-.04.327c0,.067,0,.134,0,.2,0,.152-.005.3-.007.454,0,.1,0,.2-.005.307,0,.224-.01.447-.007.67,0,.206.013.412.012.618,0,.3-.006.6-.009.893,0,.261,0,.522-.013.782-.014.376,0,.752,0,1.127v.4a.551.551,0,0,0,.025.2.182.182,0,0,0,.1.107.289.289,0,0,0,.151,0c.06-.008.122-.01.183-.013.374-.019.675-.022,1.05-.022.288,0,.575-.008.864-.01.22,0,.44,0,.66,0a.9.9,0,0,1,.193.014.558.558,0,0,1,.127.044.12.12,0,0,1,.044.163m-.051-.41-.36,0c-.271,0-.543-.006-.815-.011l-.854-.01c-.253,0-.458-.013-.711,0-.061,0-.145.035-.177-.04-.053-.12.1-.3.167-.376l.137-.119s.053.255.447.238l2.268.033s.257.018.24.152c0,0-.034.2-.343.135m.754.729a.323.323,0,0,1-.411-.229.41.41,0,0,1,.275-.523s.291.049.291.31.017.409-.154.441m.207-.915s.308-.2.428-.169c0,0,1.555.062,2.04.017C40.2,8.8,40.19,8.8,40.2,8.8c.041-.011.04-.008.083-.018a.71.71,0,0,0,.223-.119c.082-.053.148.006.206.068l.24.271s.033.17-.258.152c0,0-2.586,0-2.672.018,0,0-.532.084-.479-.2m4.8-.677c-.083,0-.166,0-.248.007a.661.661,0,0,0-.329.081.123.123,0,0,0-.056.1c-.008.11-.021.218-.033.326a2.791,2.791,0,0,0-.019.319c0,.067,0,.135,0,.2a.48.48,0,0,1,0,.088.316.316,0,0,1-.167.219.6.6,0,0,1-.258.053,1.009,1.009,0,0,1-.117,0S38.4,9.666,37.941,9.7c0,0-.274-.033-.2-.27a.633.633,0,0,1,.342-.068c.137.034,2.143-.017,2.143-.017.121.011.194.018.315.019a2.063,2.063,0,0,0,.266-.01.854.854,0,0,0,.2-.055l.1-.037a.524.524,0,0,0,.086-.031.185.185,0,0,0,.069-.1.869.869,0,0,0,.053-.306c.005-.111,0-.223.007-.335,0-.143.024-.284.029-.427s.005-.291,0-.438V7.483c0-.167,0-.334,0-.5V6.3q0-.45,0-.9,0-.571,0-1.143l0-.573a1.287,1.287,0,0,0-.059-.592,1.484,1.484,0,0,1-.081-.133c-.02-.053,0-.11.059-.118a.286.286,0,0,1,.057,0c.068,0,.132-.016.2-.016a.112.112,0,0,1,.121.068,1.3,1.3,0,0,1,.056.247.713.713,0,0,1,0,.26,1.145,1.145,0,0,0-.039.3.428.428,0,0,0,.081.262.339.339,0,0,0,.221.091,1.038,1.038,0,0,1,.558.11.189.189,0,0,1,.012.288c-.067.081-.151.072-.247.072l-.371.033a.316.316,0,0,0-.24.373c.034.322-.018,2.625-.018,2.625s-.04.272.388.255c0,0,.532-.018.532.135a.244.244,0,0,1-.24.356" transform="translate(21600.416 -2650.916)" fill="#050605"></path>
    <path id="Path_5246" data-name="Path 5246" d="M21.189,5.3s.138.155.138.241l-.017.721.017,1a.448.448,0,0,1-.155.31s-.1.172,0,.222l.552.053s.174-.1.07-.24l-.155-.257.034-.533s.1-.12.154-.051l.6.933s.275.189.345,0a.145.145,0,0,0-.07-.138L22.224,6.8l.035-.275a.81.81,0,0,0,.15-.081.786.786,0,0,0,.263-.273.591.591,0,0,0,.069-.215,1.051,1.051,0,0,0-.005-.317.789.789,0,0,0-.581-.54h-.724s-.293-.052-.328.033c0,0-.034.155.087.172m.552.034s.345-.084.414.018.5.481.068.893a.325.325,0,0,1-.517.1s0-.515-.017-.893Z" transform="translate(21602.957 -2651.586)" fill="#050605"></path>
    <path id="Path_5247" data-name="Path 5247" d="M25.411,7.839l.51-.017s.193.034.193-.12a1.279,1.279,0,0,1-.176-.24s-.018-1.632,0-1.821l.07-.224a.2.2,0,0,0,.088-.292.537.537,0,0,0-.247-.033l-.176-.034s-.352.017-.3.154l.159.342v1.7s-.053.31-.229.4c0,0-.053.172.106.189" transform="translate(21601.953 -2651.58)" fill="#050605"></path>
    <path id="Path_5248" data-name="Path 5248" d="M26.858,7.535c-.412.018-.365-.292-.365-.292.017-.223-.008-2.181-.008-2.181a.389.389,0,0,1,.086-.268c.046-.036.119-.02.173-.019a1.638,1.638,0,0,0,.266,0,.41.41,0,0,0,.344-.266.6.6,0,0,0,.04-.272c-.018-.17-.018-.315-.2-.379a.765.765,0,0,0-.285-.018c-.4.013-.419-.307-.419-.307a2.215,2.215,0,0,0,0-.673c-.026-.139-.057-.3-.224-.315a1.388,1.388,0,0,0-.473.008.2.2,0,0,1-.127.016.272.272,0,0,1-.1-.075.869.869,0,0,1-.115-.116c-.029-.038-.034-.077-.08-.1a.415.415,0,0,0-.123-.031c-.079-.012-.147.067-.209.105a.842.842,0,0,1-.178.105,1.91,1.91,0,0,1-.5.1,1.787,1.787,0,0,1-.3-.007c-.141-.015-.275-.041-.419-.045-.171,0-.353,0-.524.005a2.009,2.009,0,0,0-.325.019.373.373,0,0,0-.129.078.33.33,0,0,1-.327,0,.976.976,0,0,0-.126-.083.649.649,0,0,0-.23-.031c-.3.02-.6.029-.9.02a5.075,5.075,0,0,1-.7-.065,2,2,0,0,1-.2-.044c-.088-.024-.211-.075-.3-.105-.068-.024-.419-.069-.479-.013a.232.232,0,0,0-.041.065.422.422,0,0,1-.078.117c-.1.1-.315.054-.439.052-.081,0-.2-.005-.281-.01-.292-.018-.343.172-.343.172l-.018.7c0,.126.051.285-.082.358a.686.686,0,0,1-.334.074.792.792,0,0,0-.393.078.406.406,0,0,0-.192.273.5.5,0,0,0,.016.209.36.36,0,0,0,.2.272.73.73,0,0,0,.381.035.492.492,0,0,1,.272.037c.1.052.117.135.113.243-.006.178.03.358.03.535,0,.393.018.785.023,1.177,0,.113,0,.227,0,.34s-.036.213-.045.317a.273.273,0,0,1-.033.132.16.16,0,0,1-.108.064.858.858,0,0,1-.132,0c-.807-.018-.7.532-.7.532.017.515.6.447.6.447a.4.4,0,0,1,.295.082.2.2,0,0,1,.059.094.4.4,0,0,0,.006.046,6.649,6.649,0,0,1-.034.859.294.294,0,0,0,.267.29,1.421,1.421,0,0,0,.22-.018c.121-.006.339.009.46.012.332.008.841.016,1.173.024l1.1.024c.081,0,.162,0,.243.005a.845.845,0,0,1,.211.011.581.581,0,0,1,.153.092.918.918,0,0,0,.518.182.381.381,0,0,0,.26-.107c.042-.04.069-.107.109-.154a.143.143,0,0,1,.075-.051,1,1,0,0,1,.268.019l.17.007c.33.01.661.01.992.008.349,0,.729-.005,1.078-.011.172,0,.341-.008.512-.008.482.1.481-.326.481-.326l.035-.859c.058-.259.391-.154.568-.186A.465.465,0,0,0,27.393,8a.484.484,0,0,0-.536-.463M25.3,3.56c0-.2,0-.409,0-.613a.087.087,0,0,1,.005-.031.189.189,0,0,1,.209-.11c.107.039.118.2.154.3a.989.989,0,0,1,.073.334c0,.117-.01.234-.011.351,0,.208-.005.4-.008.613,0,.262.014.535.01.8,0,.285.014.572.01.858s-.007.563-.011.845c0,.248-.006.5-.009.745q0,.279-.008.559c0,.182-.013.364-.022.546,0,.108-.054.071-.113.016a1.174,1.174,0,0,1-.215-.331.861.861,0,0,1-.037-.38q0-.272,0-.543c0-.244,0-.489,0-.734l0-.843c0-.291-.031-.583-.03-.874,0-.272-.008-.543-.008-.817l0-.686M22.5,7.843l.034-2.182c-.018-.086.034-2.679.034-2.679.035-.275.664-.258.664-.258.222.007.445.012.668.011.173,0,.346,0,.519-.013a1.038,1.038,0,0,0,.422-.066c.1-.056.22-.135.286,0a.278.278,0,0,1,.01.115c0,.068,0,.139-.008.207-.011.165-.034.33-.033.5,0,.25.007.5.006.75,0,.32,0,.629,0,.95,0,.359.032.73.028,1.089,0,.336-.008.672-.012,1.008q0,.372-.011.745c0,.1,0,.194,0,.291a.263.263,0,0,1-.132.214,1.244,1.244,0,0,1-.26.064A3.159,3.159,0,0,1,23.9,8.6a5.925,5.925,0,0,0-.592-.044,3.149,3.149,0,0,0-.615.079.253.253,0,0,0-.077.025c-.017.009-.028.024-.048.026a.1.1,0,0,1-.063-.021c-.013-.008-.068-.049-.066-.067s.068-.756.068-.756M19.591,2.707c0-.122.314-.17.416-.142.186.053.462.117.652.152a1.446,1.446,0,0,0,.275.018c.13,0,.259,0,.39-.007q.332-.013.664-.038c.292.017.31.412.31.412.068.928-.069,5.394-.069,5.394-.006.094-.062.163-.156.1a.307.307,0,0,0-.179-.056L21.7,8.537c-.106,0-.212,0-.319-.006-.264,0-.527.025-.79.018-.125,0-.345-.01-.47-.019a.8.8,0,0,1-.589-.309Zm-.654.757s.071-.635.4-.6a3.16,3.16,0,0,1,.027.44c0,.142,0,.285,0,.428,0,.537.033,1.072.027,1.609l-.014,1.377c0,.409-.057.816-.061,1.224,0,.3.049.642-.22.845-.019.014-.1.027-.116.039,0,0-.086.034-.081-.206Zm2.938,6.077c-.036.067-.126.075-.2.075l-2.889,0c-.107,0-.269-.007-.337-.088a.373.373,0,0,1-.058-.254c0-.129,0-.259.006-.388a.608.608,0,0,0-.169-.53.852.852,0,0,0-.45-.073c-.154-.009-.338-.088-.346-.243a.281.281,0,0,1,.219-.251,2.141,2.141,0,0,1,.357-.036.371.371,0,0,0,.3-.164.934.934,0,0,0,.085-.391c0-.141,0-.283,0-.425.005-.632-.025-1.265-.025-1.9a.467.467,0,0,0-.037-.227.386.386,0,0,0-.342-.16,1.333,1.333,0,0,1-.394-.027.22.22,0,0,1-.141-.143c-.1-.228.224-.31.371-.317a.726.726,0,0,0,.425-.1c.17-.134.158-.389.143-.6s.016-.482.214-.568c.09-.039.263,0,.276.092a.231.231,0,0,1-.019.106,2.452,2.452,0,0,0-.119.552c0,.04-.008.078-.01.118,0,.07-.008.139-.008.209v.385c0,.132,0,.262,0,.392s0,.263,0,.393c0,.636.021,1.275.018,1.912s-.037,1.27-.04,1.906c0,.026,0,.053,0,.079a.433.433,0,0,0,.147.363.736.736,0,0,0,.33.056h.062l.813.008.863.008.409,0a1.233,1.233,0,0,1,.4.04c.072.026.191.094.141.186m.07-.345a.749.749,0,0,1-.285-.05c-.063-.013-.126-.031-.189-.04a1.77,1.77,0,0,0-.254-.005c-.1,0-.205,0-.308,0h-.741c-.189,0-.556-.01-.744,0-.07.005-.163.015-.2-.065a.187.187,0,0,1,0-.126c.153-.292.324-.223.324-.223.068.017.569.1.57.1a2.157,2.157,0,0,0,.306.014c.3.008.6.007.9.006l.4,0h.132a.3.3,0,0,1,.228.119c.053.059.074.133.008.192a.348.348,0,0,1-.152.077m.68.64a.3.3,0,0,1-.153.071.369.369,0,0,1-.377-.326.373.373,0,0,1,.308-.434l.037,0c.137,0,.224.186.272.289a.323.323,0,0,1-.087.4m.083-.718A.16.16,0,0,1,22.672,9a.051.051,0,0,1,.005-.021.366.366,0,0,1,.1-.1.272.272,0,0,1,.154-.075c.154,0,.32.024.474.033s.323.016.485.019a6.352,6.352,0,0,0,.722-.014,1.838,1.838,0,0,0,.2-.028c.027-.006.054-.013.081-.021a1.086,1.086,0,0,1,.12-.046c.032-.006.064-.01.1-.013a.314.314,0,0,1,.2.018s.272.206.272.327-.207.087-.269.081a11.031,11.031,0,0,0-1.166,0l-.708.006a2.467,2.467,0,0,0-.318.008c-.043.006-.084.014-.128.016-.094.005-.221.008-.286-.072m4.453-.992a.181.181,0,0,1-.106.11.839.839,0,0,1-.265.022,1.163,1.163,0,0,0-.451.052,2.632,2.632,0,0,0-.121.893s.018.482-.342.43l-.377,0c-.291,0-.6.005-.888.006-.243,0-.522,0-.768-.006l-.376-.006c-.117,0-.25.008-.366,0-.066-.008-.149-.054-.149-.132,0,0,0-.138.24-.138l.365,0,.79-.005.847-.006.3,0h.1c.079,0,.145.043.206-.026a.411.411,0,0,0,.065-.267s.045-1.872.053-3.934c0-.317.007-.634.013-.951,0-.174.008-.348.011-.522a1.5,1.5,0,0,0-.033-.5.331.331,0,0,0-.059-.107.158.158,0,0,1-.044-.107.191.191,0,0,1,.043-.109.186.186,0,0,1,.145-.063.427.427,0,0,1,.119.02.242.242,0,0,1,.171.131.605.605,0,0,1,.021.276c0,.115,0,.231,0,.347,0,.056,0,.113.006.17a.667.667,0,0,0,.011.151c.03.116.153.139.256.139a1.671,1.671,0,0,1,.374.049.273.273,0,0,1,.2.323c-.028.151-.181.184-.311.182h-.023c-.182-.008-.481-.082-.536.15a1.953,1.953,0,0,0-.008.4c0,.12.038.24.035.359l-.018.906c-.008.321.005.649-.021.969,0,0-.035.424.377.412.2-.005.466-.008.53.242a.217.217,0,0,1-.017.142" transform="translate(21603.895 -2650.908)" fill="#050605"></path>
    <path id="Path_5249" data-name="Path 5249" d="M12.337,7.535c-.412.018-.365-.292-.365-.292.017-.223.014-2.181.014-2.181a.388.388,0,0,1,.085-.268c.046-.036.08-.02.133-.019a1.473,1.473,0,0,0,.253-.016.411.411,0,0,0,.344-.265.618.618,0,0,0,.04-.274c-.018-.17-.018-.314-.2-.377a.766.766,0,0,0-.285-.019c-.4.014-.365-.291-.365-.291a2.24,2.24,0,0,0,0-.673c-.025-.139-.072-.3-.238-.315a1.392,1.392,0,0,0-.473.008.2.2,0,0,1-.127.016.256.256,0,0,1-.1-.075.8.8,0,0,1-.116-.116c-.029-.038-.034-.077-.08-.1a.415.415,0,0,0-.123-.031c-.078-.012-.147.067-.208.105a1.15,1.15,0,0,1-.215.105,2.111,2.111,0,0,1-.526.1,1.784,1.784,0,0,1-.3-.007C9.332,2.53,9.2,2.5,9.055,2.5c-.171,0-.353,0-.524.005a2.013,2.013,0,0,0-.326.019.377.377,0,0,0-.128.078.33.33,0,0,1-.327,0,1.03,1.03,0,0,0-.126-.083.651.651,0,0,0-.23-.031c-.3.02-.6.029-.9.02a4.423,4.423,0,0,1-.657-.065,1.936,1.936,0,0,1-.2-.044c-.089-.024-.212-.075-.3-.105-.068-.024-.419-.069-.479-.013a.214.214,0,0,0-.04.065.441.441,0,0,1-.079.117c-.1.1-.341.054-.464.052-.081,0-.2-.005-.282-.01-.291-.018-.344.172-.344.172l-.017.7c0,.126.052.285-.082.358a.686.686,0,0,1-.334.074,1.755,1.755,0,0,1-.219,0c-.378.034-.344.6-.344.6a.289.289,0,0,0,.153.215.7.7,0,0,0,.42.053.492.492,0,0,1,.273.037c.105.052.116.135.113.243-.006.178.04.356.041.533,0,.393.008.786.012,1.179l0,.34a3.031,3.031,0,0,1-.045.317.291.291,0,0,1-.033.132.16.16,0,0,1-.108.064.843.843,0,0,1-.132,0c-.808-.018-.7.532-.7.532.018.515.6.447.6.447a.4.4,0,0,1,.3.082.2.2,0,0,1,.06.094c0,.013,0,.036.006.046a6.638,6.638,0,0,1-.035.859c-.012.15.156.276.292.29a1.43,1.43,0,0,0,.221-.018c.121-.006.339.009.46.012.332.008.841.016,1.173.024l1.057.024c.081,0,.162,0,.243.005a.845.845,0,0,1,.211.011.577.577,0,0,1,.152.092A.922.922,0,0,0,7.9,10.2a.381.381,0,0,0,.261-.107c.041-.04.068-.107.109-.154a.14.14,0,0,1,.075-.051,1,1,0,0,1,.267.019l.17.007c.331.01.662.01.992.008.349,0,.754-.005,1.1-.011.185,0,.371-.014.556,0a.407.407,0,0,0,.385-.118A.4.4,0,0,0,11.9,9.58l.034-.859c.058-.259.391-.154.568-.186A.465.465,0,0,0,12.872,8a.484.484,0,0,0-.536-.463m-1.56.521,0-.543,0-.734c0-.281,0-.562,0-.843s.006-.583.008-.874c0-.272-.008-.543-.008-.817l0-.686c0-.2,0-.409,0-.613a.107.107,0,0,1,0-.031A.189.189,0,0,1,11,2.806c.107.039.119.2.154.3a.971.971,0,0,1,.073.334c0,.117-.009.234-.011.351,0,.208-.006.4-.008.613,0,.262,0,.53,0,.791,0,.286-.01.577-.013.864s-.008.563-.011.845c0,.248-.007.5-.011.745,0,.186,0,.372-.007.559s-.013.364-.022.546c0,.108-.054.071-.113.016a1.19,1.19,0,0,1-.215-.331.872.872,0,0,1-.037-.38m-2.85-.213.034-2.182C7.943,5.575,8,2.982,8,2.982c.034-.275.664-.258.664-.258.222.007.445.012.667.011.174,0,.346,0,.519-.013a1.167,1.167,0,0,0,.447-.066c.1-.056.256-.135.323,0a.278.278,0,0,1,.01.115c0,.068,0,.139-.008.207-.011.165-.034.33-.032.5,0,.25.006.5.005.75,0,.32,0,.629,0,.95,0,.359-.005.73-.009,1.089q-.006.5-.012,1.008c0,.248-.006.5-.01.745,0,.1,0,.194,0,.291a.263.263,0,0,1-.132.214,1.244,1.244,0,0,1-.259.064,3.349,3.349,0,0,1-.842.015,5.925,5.925,0,0,0-.592-.044,3.142,3.142,0,0,0-.615.079.253.253,0,0,0-.077.025c-.017.009-.029.024-.048.026a.1.1,0,0,1-.064-.021c-.013-.008-.068-.049-.065-.067s.068-.756.068-.756M5.061,2.707c0-.122.314-.17.416-.142.186.053.415.117.6.152a1.458,1.458,0,0,0,.275.018c.13,0,.259,0,.39-.007q.332-.013.664-.038c.293.017.31.412.31.412C7.789,4.03,7.651,8.5,7.651,8.5c-.006.094-.061.163-.155.1a.309.309,0,0,0-.18-.056l-.191-.006c-.107,0-.212,0-.319-.006-.264,0-.527.025-.791.018-.124,0-.3-.01-.422-.019A.8.8,0,0,1,5,8.221Zm-.68.757s.1-.635.422-.6a3.038,3.038,0,0,1,.027.44c0,.142,0,.285,0,.428,0,.537.032,1.072.026,1.609L4.845,6.717c0,.409-.057.816-.06,1.224,0,.3.049.642-.221.845-.019.014-.123.027-.143.039,0,0-.085.034-.081-.206ZM7.3,9.541c-.036.067-.126.075-.2.075l-2.868,0a.475.475,0,0,1-.337-.088.373.373,0,0,1-.058-.254l.007-.388a.608.608,0,0,0-.17-.53.852.852,0,0,0-.45-.073c-.154-.009-.337-.088-.345-.243a.279.279,0,0,1,.219-.251,2.117,2.117,0,0,1,.357-.036.371.371,0,0,0,.3-.164.922.922,0,0,0,.085-.391c0-.141,0-.283,0-.425.005-.632-.026-1.265-.026-1.9a.466.466,0,0,0-.036-.227.384.384,0,0,0-.342-.16,1.333,1.333,0,0,1-.394-.027A.3.3,0,0,1,2.865,4.3c-.1-.228.261-.294.408-.3A.726.726,0,0,0,3.7,3.9c.17-.134.158-.389.143-.6s.016-.482.215-.568c.09-.039.263,0,.275.092a.231.231,0,0,1-.019.106,2.41,2.41,0,0,0-.119.552c0,.04-.008.078-.011.118-.005.07-.008.139-.008.209v0c0,.127,0,.256,0,.382s0,.262,0,.392,0,.263,0,.393c0,.636.021,1.275.018,1.912S4.154,8.16,4.151,8.8c0,.026,0,.053,0,.079a.43.43,0,0,0,.147.363.848.848,0,0,0,.355.056c.712.008,1.65.017,2.362.024a.426.426,0,0,1,.212.04.146.146,0,0,1,.069.183M7.383,9.2a.763.763,0,0,1-.287-.05c-.062-.013-.126-.031-.19-.04A1.78,1.78,0,0,0,6.65,9.1c-.1,0-.206,0-.31,0h-.7c-.19,0-.559-.01-.748,0-.071.005-.164.015-.2-.065a.183.183,0,0,1,0-.126c.154-.292.326-.223.326-.223.069.017.573.1.573.1a1.563,1.563,0,0,0,.26.014c.3.008.6.007.9.006l.407,0H7.3a.3.3,0,0,1,.229.119c.054.059.075.133.008.192a.344.344,0,0,1-.152.077m.665.64a.3.3,0,0,1-.153.071.37.37,0,0,1-.378-.326.374.374,0,0,1,.309-.434l.037,0c.136,0,.223.186.272.289a.325.325,0,0,1-.087.4m.082-.718A.163.163,0,0,1,8.095,9,.043.043,0,0,1,8.1,8.979a.375.375,0,0,1,.1-.1.277.277,0,0,1,.154-.075c.155,0,.32.024.475.033s.323.016.485.019a6.356,6.356,0,0,0,.722-.014,2.266,2.266,0,0,0,.228-.028c.027-.006.055-.013.081-.021a1.087,1.087,0,0,1,.12-.046c.032-.006.065-.01.1-.013a.314.314,0,0,1,.2.018s.272.206.272.327-.207.087-.269.081a11.5,11.5,0,0,0-1.19,0l-.708.006a2.46,2.46,0,0,0-.318.008c-.043.006-.085.014-.128.016a.34.34,0,0,1-.287-.072m4.509-.992a.179.179,0,0,1-.106.11.839.839,0,0,1-.265.022,1.767,1.767,0,0,0-.18,0c-.068,0-.228-.006-.272.058a.1.1,0,0,0-.014.029A3.457,3.457,0,0,0,11.7,9.2c-.012.2-.1.427-.326.433-.142,0-.283,0-.425,0-.291,0-.621.005-.912.006-.244,0-.522,0-.768-.006L8.888,9.63c-.117,0-.25.008-.365,0-.066-.008-.149-.054-.149-.132,0,0,0-.138.24-.138l.365,0,.79-.005c.426,0,.885-.031,1.31,0a.316.316,0,0,0,.11,0c.119-.031.111-.2.116-.3,0,0,.083-1.872.091-3.934,0-.317.006-.634.012-.951,0-.174.008-.348.011-.522a1.523,1.523,0,0,0-.032-.5.333.333,0,0,0-.06-.107.157.157,0,0,1-.043-.107.18.18,0,0,1,.188-.172.422.422,0,0,1,.119.02.269.269,0,0,1,.186.131.605.605,0,0,1,.022.276c0,.115,0,.231,0,.347,0,.056,0,.113.006.17a.714.714,0,0,0,.011.151c.03.116.153.139.256.139a1.257,1.257,0,0,1,.32.034.287.287,0,0,1,.219.325c-.029.152-.2.182-.33.18h-.023c-.183-.007-.428-.067-.483.165a2.067,2.067,0,0,0-.008.4c0,.12,0,.24,0,.359-.006.309-.025.625-.028.936s.03.627.005.938a.473.473,0,0,0,.047.24c.177.342.753-.008.861.415a.217.217,0,0,1-.017.142" transform="translate(21607.369 -2650.908)" fill="#050605"></path>
    <path id="Path_5250" data-name="Path 5250" d="M6.393,5.481c.035.07.7,2.233.7,2.233.291.282.326-.07.326-.07a14.72,14.72,0,0,0,.584-2.057l.154-.334c-.051-.141-.412-.106-.412-.106-.155.018-.051.193-.051.193l.1.37L7.457,6.958c-.12.3-.223-.105-.223-.105A9.413,9.413,0,0,1,6.839,5.5c.275-.194.068-.37.068-.37l-.635-.018c-.24.018-.1.212-.1.212Z" transform="translate(21606.535 -2651.593)" fill="#050605"></path>
    <path id="Path_5251" data-name="Path 5251" d="M10.368,5.393a.131.131,0,0,1,.053.1L10.4,7.343l-.052.14s-.174.226-.053.244c0,0-.157.1,1.115.122,0,0,.488.088.365-.54,0,0-.053-.226-.226.105,0,0-.053.279-.68.192a.417.417,0,0,1-.139-.262V6.578s-.018-.193.279-.175c0,0,.33.209.384.123a.541.541,0,0,0,0-.453s-.158-.018-.174.052c0,0-.105.209-.4.088a.73.73,0,0,1-.053-.505s-.034-.435.262-.4c0,0,.349.069.384.174,0,0,.086.209.174-.034l-.088-.3s-.051-.122-.139-.087c0,0-.592.087-.661.018l-.47.052a.2.2,0,0,0,.139.262" transform="translate(21605.559 -2651.58)" fill="#050605"></path>
    <path id="Path_5252" data-name="Path 5252" d="M4.244,18.913a.185.185,0,0,0,.165-.182V17.043c0-.086-.048-.145-.179-.173v-.085c.059,0,.306.007.365.007s.3-.007.365-.007v.085c-.131.036-.183.087-.183.173V18.8h.6c.2,0,.292-.094.382-.273l.085.021-.055.46a4.671,4.671,0,0,0-.543-.021H4.591c-.059,0-.268.007-.347.007Z" transform="translate(21606.988 -2654.383)" fill="#050605"></path>
    <path id="Path_5253" data-name="Path 5253" d="M7.121,18.9a.185.185,0,0,0,.165-.182V17.031c0-.064-.048-.141-.165-.169v-.085H8.459a.281.281,0,0,0,.126-.027h.086l-.01.429H8.575a.3.3,0,0,0-.317-.212h-.6v.772h.533a.2.2,0,0,0,.189-.127h.089c-.006.068-.006.179-.006.216s0,.152,0,.22H8.376a.214.214,0,0,0-.189-.127H7.654V18.8h.6a.375.375,0,0,0,.378-.2l.089.021L8.664,19a4.671,4.671,0,0,0-.543-.021H7.468c-.059,0-.268.007-.347.007Z" transform="translate(21606.299 -2654.375)" fill="#050605"></path>
    <path id="Path_5254" data-name="Path 5254" d="M10.031,18.913a.92.92,0,0,0,.378-.316l.512-.718-.5-.75a.565.565,0,0,0-.312-.259v-.085c.089,0,.288.007.343.007s.257-.007.347-.007v.082c-.055.021-.062.039-.062.062a.252.252,0,0,0,.045.117l.351.529.368-.511a.256.256,0,0,0,.049-.142c0-.01-.018-.037-.09-.047v-.09c.086,0,.254.007.31.007s.219-.007.309-.007v.085a.657.657,0,0,0-.357.255l-.458.635.554.849a.662.662,0,0,0,.323.3V19c-.09,0-.293-.007-.348-.007s-.254.007-.344.007v-.086c.038-.018.062-.044.062-.068a.247.247,0,0,0-.04-.125l-.427-.65-.444.619a.214.214,0,0,0-.044.141c0,.021.007.053.1.082V19c-.09,0-.258-.007-.314-.007S10.12,19,10.031,19Z" transform="translate(21605.602 -2654.383)" fill="#050605"></path>
    <path id="Path_5255" data-name="Path 5255" d="M15.457,18.9a.185.185,0,0,0,.165-.182V17.031c0-.064-.048-.141-.165-.169v-.085h1.338a.281.281,0,0,0,.126-.027h.086l-.01.429h-.086a.3.3,0,0,0-.317-.212h-.6v.772h.533a.2.2,0,0,0,.189-.127H16.8c-.006.068-.006.179-.006.216s0,.152,0,.22h-.086a.214.214,0,0,0-.189-.127H15.99V18.8h.6a.375.375,0,0,0,.378-.2l.089.021L17,19a4.671,4.671,0,0,0-.543-.021H15.8c-.059,0-.268.007-.347.007Z" transform="translate(21604.305 -2654.375)" fill="#050605"></path>
    <path id="Path_5256" data-name="Path 5256" d="M19.024,18.907a.218.218,0,0,0,.189-.175V16.975h-.437c-.128,0-.227.086-.268.251h-.087l-.01-.463c.154.011.289.024.987.024s.828-.013.982-.024l-.013.463h-.086c-.045-.176-.135-.251-.266-.251h-.436v1.757c0,.062.069.147.2.175v.086c-.076,0-.327-.007-.385-.007s-.289.007-.368.007Z" transform="translate(21603.6 -2654.378)" fill="#050605"></path>
    <path id="Path_5257" data-name="Path 5257" d="M23.739,18.913c.131-.028.179-.086.179-.172v-1.7c0-.086-.048-.145-.179-.173v-.085c.059,0,.313.007.371.007s.3-.007.358-.007v.085c-.131.036-.183.087-.183.173v1.7c0,.086.052.138.183.172V19c-.059,0-.306-.007-.358-.007S23.8,19,23.739,19Z" transform="translate(21602.326 -2654.383)" fill="#050605"></path>
    <path id="Path_5258" data-name="Path 5258" d="M25.789,17.046a.185.185,0,0,0-.161-.175v-.086c.075,0,.292.006.351.006s.253-.006.333-.006v.086a.178.178,0,0,0-.154.175v1.241a.531.531,0,0,0,.546.564c.34,0,.673-.174.673-.564V17.043c0-.086-.048-.145-.179-.172v-.086c.059,0,.23.006.288.006s.228-.006.289-.006v.086c-.13.037-.182.086-.182.172V18.2c0,.549-.327.832-.952.832a.764.764,0,0,1-.853-.832Z" transform="translate(21601.875 -2654.383)" fill="#050605"></path>
    <path id="Path_5259" data-name="Path 5259" d="M29.181,18.5h.089a.5.5,0,0,0,.173.244.748.748,0,0,0,.367.092c.258,0,.444-.092.444-.333a.309.309,0,0,0-.123-.279,6.067,6.067,0,0,0-.65-.31.573.573,0,0,1-.351-.546c0-.444.381-.632.811-.632.172,0,.368.044.575.037l.014.447h-.086a.553.553,0,0,0-.53-.323c-.254,0-.429.148-.429.344a.354.354,0,0,0,.2.33c.2.113.468.2.667.323a.518.518,0,0,1,.258.463c0,.42-.326.661-.777.661a2.428,2.428,0,0,1-.632-.107Z" transform="translate(21601.037 -2654.372)" fill="#050605"></path>
    <path id="Path_5260" data-name="Path 5260" d="M32.47,18.907a.218.218,0,0,0,.189-.175V16.975h-.437c-.128,0-.227.086-.268.251h-.087l-.01-.463c.154.011.288.024.987.024s.828-.013.982-.024l-.014.463h-.085c-.045-.176-.135-.251-.266-.251h-.436v1.757c0,.062.069.147.2.175v.086c-.076,0-.327-.007-.385-.007s-.289.007-.368.007Z" transform="translate(21600.385 -2654.378)" fill="#050605"></path>
    <path id="Path_5261" data-name="Path 5261" d="M35.31,18.913c.131-.028.179-.086.179-.172v-1.7c0-.086-.048-.145-.179-.173v-.085c.059,0,.313.007.371.007s.3-.007.358-.007v.085c-.131.036-.183.087-.183.173v1.7c0,.086.052.138.183.172V19c-.059,0-.306-.007-.358-.007s-.31.007-.371.007Z" transform="translate(21599.561 -2654.383)" fill="#050605"></path>
    <path id="Path_5262" data-name="Path 5262" d="M37.743,18.907a.218.218,0,0,0,.189-.175V16.975H37.5c-.128,0-.227.086-.268.251h-.087l-.01-.463c.154.011.289.024.987.024s.828-.013.982-.024l-.014.463H39c-.045-.176-.135-.251-.266-.251H38.3v1.757c0,.062.069.147.2.175v.086c-.075,0-.326-.007-.384-.007s-.289.007-.368.007Z" transform="translate(21599.125 -2654.378)" fill="#050605"></path>
    <path id="Path_5263" data-name="Path 5263" d="M40.583,18.913c.131-.028.179-.086.179-.172v-1.7c0-.086-.048-.145-.179-.173v-.085c.059,0,.313.007.371.007s.3-.007.358-.007v.085c-.131.036-.183.087-.183.173v1.7c0,.086.052.138.183.172V19c-.059,0-.306-.007-.358-.007s-.31.007-.371.007Z" transform="translate(21598.301 -2654.383)" fill="#050605"></path>
    <path id="Path_5264" data-name="Path 5264" d="M42.155,18.907c.138-.035.179-.11.227-.227l.688-1.658a2.362,2.362,0,0,0,.075-.264h.234s.048.192.076.264l.639,1.658a.3.3,0,0,0,.227.227v.085c-.086,0-.288-.007-.34-.007s-.265.007-.351.007v-.085c.1-.035.11-.083.1-.128a.9.9,0,0,0-.038-.116l-.116-.3h-.808l-.124.3a.9.9,0,0,0-.038.116c-.007.045.027.093.128.128v.085c-.076,0-.231-.007-.275-.007s-.218.007-.307.007Zm1.348-.74-.313-.807-.337.807Z" transform="translate(21597.924 -2654.377)" fill="#050605"></path>
    <path id="Path_5265" data-name="Path 5265" d="M3.56,31.889a38.446,38.446,0,0,1-2.488-8.882,27.57,27.57,0,0,1,5.353,1.756A19.268,19.268,0,0,0,3.56,31.889" transform="translate(21607.744 -2655.87)" fill="#7f0b1f"></path>
    <path id="Path_5266" data-name="Path 5266" d="M40.885,24.764a27.616,27.616,0,0,1,5.352-1.758,38.434,38.434,0,0,1-2.487,8.883,19.283,19.283,0,0,0-2.865-7.125" transform="translate(21598.229 -2655.87)" fill="#7f0b1f"></path>
    <path id="Path_5267" data-name="Path 5267" d="M34.892,22.4a18.164,18.164,0,0,1,1.584,2.028,21.324,21.324,0,0,0-4.048,2.493,24.366,24.366,0,0,0-2.436,2.212,24.621,24.621,0,0,0-1.754-3.01A25.531,25.531,0,0,0,25.186,22.4Z" transform="translate(21601.98 -2655.726)" fill="#7f0b1f"></path>
    <path id="Path_5268" data-name="Path 5268" d="M17.208,26.127a24.72,24.72,0,0,0-1.754,3.01,24.257,24.257,0,0,0-2.435-2.212A21.325,21.325,0,0,0,8.97,24.432,18.119,18.119,0,0,1,10.554,22.4H20.26a25.491,25.491,0,0,0-3.052,3.723" transform="translate(21605.855 -2655.726)" fill="#7f0b1f"></path>
    <path id="Path_5269" data-name="Path 5269" d="M40.12,24.244a20.171,20.171,0,0,0-1.4-1.84h7a28.029,28.029,0,0,0-5.609,1.84" transform="translate(21598.744 -2655.726)" fill="#650717"></path>
    <path id="Path_5270" data-name="Path 5270" d="M6.671,24.244A28.021,28.021,0,0,0,1.062,22.4H8.068a20.169,20.169,0,0,0-1.4,1.84" transform="translate(21607.746 -2655.726)" fill="#650717"></path>
    <g id="Group_5754" data-name="Group 5754" transform="translate(0 -1.114)">
      <path id="Path_5271" data-name="Path 5271" d="M65.318,9.948a3.163,3.163,0,0,1,2.336.788l.374-.664h.539A14.49,14.49,0,0,0,68.3,11.98v.955h-.622v-.568c0-1.12-.9-1.894-2.309-1.894-2.364,0-2.848,2.2-2.848,4.259,0,2.239.567,4.217,2.889,4.217a2.476,2.476,0,0,0,2.6-2.2l.595.1a3.041,3.041,0,0,1-3.333,2.627c-2.806,0-4.23-1.976-4.23-4.783,0-2.891,1.521-4.743,4.272-4.743" transform="translate(21593.41 -2652.685)"></path>
      <path id="Path_5272" data-name="Path 5272" d="M74.4,13.464c1.617,0,2.488.83,2.488,2.585v.664H72.863v.1c0,2.088.511,2.751,1.6,2.751a1.838,1.838,0,0,0,1.866-1.493l.553.1a2.434,2.434,0,0,1-2.419,1.908c-1.81,0-2.889-.967-2.889-3.277,0-2.419,1.161-3.331,2.82-3.331m1.285,2.724v-.346c0-1.148-.262-1.936-1.3-1.936-1.065,0-1.479,1.023-1.507,2.282Z" transform="translate(21591.617 -2653.284)"></path>
      <path id="Path_5273" data-name="Path 5273" d="M79.232,19.382h1.12V14.155H79.108v-.5H81.5v1.548h.028A2.3,2.3,0,0,1,83.8,13.464a1.733,1.733,0,0,1,1.99,1.991v3.926h1.106v.5H83.56v-.5h1.009V15.5c0-1.091-.236-1.479-.982-1.479-1.521,0-2.019,2.2-2.019,3.207v2.157h1v.5H79.232Z" transform="translate(21590.332 -2653.284)"></path>
      <path id="Path_5274" data-name="Path 5274" d="M89.9,13.8H88.839v-.5H89.9a6.111,6.111,0,0,0,.608-1.922h.609V13.3h1.756v.5H91.12v4.093c0,.719.166,1.106.636,1.106.332,0,.678-.18.94-.844l.484.207a1.771,1.771,0,0,1-1.713,1.3c-1.093,0-1.563-.732-1.563-1.838Z" transform="translate(21588.678 -2652.929)"></path>
      <path id="Path_5275" data-name="Path 5275" d="M97.791,13.464c1.617,0,2.488.83,2.488,2.585v.664H96.257v.1c0,2.088.511,2.751,1.6,2.751a1.838,1.838,0,0,0,1.866-1.493l.553.1a2.433,2.433,0,0,1-2.419,1.908c-1.81,0-2.889-.967-2.889-3.277,0-2.419,1.161-3.331,2.82-3.331m1.285,2.724v-.346c0-1.148-.262-1.936-1.3-1.936-1.065,0-1.48,1.023-1.508,2.282Z" transform="translate(21587.633 -2653.284)"></path>
      <path id="Path_5276" data-name="Path 5276" d="M102.626,19.382h1.12V14.155H102.5v-.5h2.391v1.368h.028a2.1,2.1,0,0,1,1.908-1.562c.719,0,1.369.36,1.369,1.037,0,.484-.345.982-1.244.982a6.957,6.957,0,0,0,.027-.705c0-.47-.1-.773-.442-.773-.926,0-1.576,1.907-1.576,2.944v2.434h1.244v.5h-3.58Z" transform="translate(21586.352 -2653.284)"></path>
      <path id="Path_5277" data-name="Path 5277" d="M116.759,13.464c2.059,0,2.944,1.176,2.944,3.262,0,2.2-1.119,3.346-2.944,3.346-1.991,0-2.959-1.216-2.959-3.262,0-2.115.913-3.346,2.959-3.346m1.645,3.262c0-1.838-.387-2.819-1.645-2.819s-1.659,1.009-1.659,2.9c0,1.811.4,2.82,1.659,2.82s1.645-1.037,1.645-2.9" transform="translate(21584.426 -2653.284)"></path>
      <path id="Path_5278" data-name="Path 5278" d="M122.155,19.382h1.12V14.155h-1.245v-.5h2.391v1.548h.028a2.3,2.3,0,0,1,2.268-1.742,1.733,1.733,0,0,1,1.99,1.991v3.926h1.106v.5h-3.331v-.5h1.009V15.5c0-1.091-.236-1.479-.982-1.479-1.521,0-2.019,2.2-2.019,3.207v2.157h1v.5h-3.332Z" transform="translate(21583.025 -2653.284)"></path>
      <path id="Path_5279" data-name="Path 5279" d="M136.776,13.8h-1.065v-.5h1.065a6.132,6.132,0,0,0,.607-1.922h.609V13.3h1.756v.5h-1.756v4.093c0,.719.166,1.106.636,1.106.332,0,.678-.18.94-.844l.484.207a1.771,1.771,0,0,1-1.713,1.3c-1.093,0-1.562-.732-1.562-1.838Z" transform="translate(21580.695 -2652.929)"></path>
      <path id="Path_5280" data-name="Path 5280" d="M141.249,18.661h1.12V9.73h-1.245v-.5h2.46v3.982c0,.636-.069,1.258-.069,1.258h.028a2.362,2.362,0,0,1,2.267-1.728,1.733,1.733,0,0,1,1.99,1.991v3.926h1.106v.5h-3.331v-.5h1.01V14.775c0-1.077-.236-1.479-.982-1.479-1.52,0-2.019,2.2-2.019,3.207v2.157h1v.5h-3.332Z" transform="translate(21579.773 -2652.563)"></path>
      <path id="Path_5281" data-name="Path 5281" d="M154.243,13.464c1.617,0,2.488.83,2.488,2.585v.664h-4.023v.1c0,2.088.511,2.751,1.6,2.751a1.838,1.838,0,0,0,1.866-1.493l.553.1a2.433,2.433,0,0,1-2.42,1.908c-1.81,0-2.889-.967-2.889-3.277,0-2.419,1.161-3.331,2.82-3.331m1.285,2.724v-.346c0-1.148-.262-1.936-1.3-1.936-1.064,0-1.479,1.023-1.507,2.282Z" transform="translate(21578.02 -2653.284)"></path>
      <path id="Path_5282" data-name="Path 5282" d="M168.517,18.781c.553,0,.746-.069,1.313-2.392h.442s-.111,1.479-.1,2.212v.719h-7.024v-.5h1.37V10.679h-1.37v-.5h4.093v.5h-1.369v8.1Z" transform="translate(21576.023 -2652.725)"></path>
      <path id="Path_5283" data-name="Path 5283" d="M175.787,13.464c1.617,0,2.488.83,2.488,2.585v.664h-4.023v.1c0,2.088.511,2.751,1.6,2.751a1.838,1.838,0,0,0,1.866-1.493l.554.1a2.434,2.434,0,0,1-2.419,1.908c-1.81,0-2.889-.967-2.889-3.277,0-2.419,1.161-3.331,2.82-3.331m1.285,2.724v-.346c0-1.148-.262-1.936-1.3-1.936-1.065,0-1.48,1.023-1.508,2.282Z" transform="translate(21574.352 -2653.284)"></path>
      <path id="Path_5284" data-name="Path 5284" d="M181.758,17.036a2.01,2.01,0,0,1-.622-1.576c0-1.284.884-2.225,2.585-2.225a2.919,2.919,0,0,1,1.825.539,1.575,1.575,0,0,0,.346-1.079,4.658,4.658,0,0,0-.041-.581c.871,0,1.2.47,1.2.926,0,.54-.581.914-1.2,1.065a2.085,2.085,0,0,1,.415,1.3c0,1.438-.982,2.212-2.6,2.212a3.313,3.313,0,0,1-1.48-.29c-.358.236-.7.525-.7.913,0,1.466,5.364-.3,5.364,2.572,0,1.672-1.659,2.183-3.139,2.183-1.7,0-2.862-.553-2.862-1.41,0-.5.47-.884,1.217-.884-.25,1.341.345,1.825,1.645,1.825,1.148,0,2.31-.235,2.31-1.286,0-2.046-5.268-.082-5.268-2.612a1.925,1.925,0,0,1,1.009-1.591m3.277-1.631c0-1.092-.388-1.756-1.341-1.756s-1.328.677-1.328,1.825c0,1.092.36,1.728,1.313,1.728.982,0,1.355-.636,1.355-1.8" transform="translate(21573.025 -2653.054)"></path>
      <path id="Path_5285" data-name="Path 5285" d="M192.986,16.34V15.069c0-.789-.221-1.162-1.148-1.162s-1.216.387-1.216,1.162a4.628,4.628,0,0,0,.041.58c-.8,0-1.189-.4-1.189-.913,0-.788.941-1.272,2.392-1.272,1.659,0,2.337.539,2.337,1.99v3.36c0,.387.1.595.318.595.442,0,.608-.76.608-.76l.484.165a1.49,1.49,0,0,1-1.368,1.2,1.031,1.031,0,0,1-1.133-1h-.028a2.273,2.273,0,0,1-1.921,1.051,1.758,1.758,0,0,1-1.951-1.645c0-1.548,2.019-2.088,3.774-2.088m-1.616,3.208a1.821,1.821,0,0,0,1.616-1.59V16.866c-1.631,0-2.461.415-2.461,1.617,0,.677.305,1.065.845,1.065" transform="translate(21571.586 -2653.284)"></path>
      <path id="Path_5286" data-name="Path 5286" d="M197.019,18.661h1.12V9.73h-1.245v-.5h2.46v9.429h1.12v.5h-3.456Z" transform="translate(21570.277 -2652.563)"></path>
      <path id="Path_5287" data-name="Path 5287" d="M206.008,18.823h1.369V10.68h-1.369v-.5h3.609c2.75,0,3.608,1.161,3.608,2.613a2.824,2.824,0,0,1-3.111,2.9,4.318,4.318,0,0,1-.511-.027v-.512a3.223,3.223,0,0,0,.414.028c1.3,0,1.756-.968,1.756-2.351,0-1.341-.456-2.116-2.17-2.116h-.871v8.1h1.493v.5h-4.217Z" transform="translate(21568.725 -2652.725)"></path>
      <path id="Path_5288" data-name="Path 5288" d="M215.713,19.382h1.12V14.155h-1.245v-.5h2.391v1.368h.028a2.1,2.1,0,0,1,1.908-1.562c.719,0,1.369.36,1.369,1.037,0,.484-.345.982-1.244.982a6.963,6.963,0,0,0,.027-.705c0-.47-.1-.773-.442-.773-.927,0-1.576,1.907-1.576,2.944v2.434h1.244v.5h-3.58Z" transform="translate(21567.094 -2653.284)"></path>
      <path id="Path_5289" data-name="Path 5289" d="M226.163,13.464c2.059,0,2.944,1.176,2.944,3.262,0,2.2-1.119,3.346-2.944,3.346-1.991,0-2.959-1.216-2.959-3.262,0-2.115.913-3.346,2.959-3.346m1.645,3.262c0-1.838-.388-2.819-1.645-2.819s-1.659,1.009-1.659,2.9c0,1.811.4,2.82,1.659,2.82s1.645-1.037,1.645-2.9" transform="translate(21565.797 -2653.284)"></path>
      <path id="Path_5290" data-name="Path 5290" d="M231.552,18.624h1.12V13.4h-1.12v-.5h1.12V11.657a2.375,2.375,0,0,1,2.543-2.641c1.01,0,1.99.373,1.99,1.133,0,.484-.386.857-1.175.857.014-.179.028-.332.028-.485,0-.7-.249-1.064-.885-1.064-.926,0-1.286.664-1.286,1.866V12.9h1.742v.5h-1.742v5.226h1.245v.5h-3.58Z" transform="translate(21564.375 -2652.526)"></path>
      <path id="Path_5291" data-name="Path 5291" d="M240.2,13.464c1.617,0,2.488.83,2.488,2.585v.664H238.67v.1c0,2.088.511,2.751,1.6,2.751a1.838,1.838,0,0,0,1.866-1.493l.553.1a2.433,2.433,0,0,1-2.419,1.908c-1.81,0-2.889-.967-2.889-3.277,0-2.419,1.161-3.331,2.82-3.331m1.285,2.724v-.346c0-1.148-.262-1.936-1.3-1.936-1.065,0-1.479,1.023-1.507,2.282Z" transform="translate(21563.383 -2653.284)"></path>
      <path id="Path_5292" data-name="Path 5292" d="M245.448,18.69V17.53h.58v.636a1.717,1.717,0,0,0,1.881,1.424c.677,0,1.23-.262,1.23-1,0-1.866-3.677-.747-3.677-3.221a1.983,1.983,0,0,1,2.239-1.908,2.119,2.119,0,0,1,1.6.622l.18-.553h.539a11.528,11.528,0,0,0-.18,1.313v.843h-.58v-.359a1.432,1.432,0,0,0-1.577-1.383c-.692,0-1.2.291-1.2.955,0,1.783,3.705.76,3.705,3.165a2.052,2.052,0,0,1-2.323,2,2.236,2.236,0,0,1-1.8-.691l-.152.622h-.553s.084-.719.084-1.313" transform="translate(21562.023 -2653.284)"></path>
      <path id="Path_5293" data-name="Path 5293" d="M252.862,18.69V17.53h.581v.636a1.717,1.717,0,0,0,1.881,1.424c.677,0,1.23-.262,1.23-1,0-1.866-3.676-.747-3.676-3.221a1.983,1.983,0,0,1,2.239-1.908,2.119,2.119,0,0,1,1.6.622l.18-.553h.539a11.526,11.526,0,0,0-.18,1.313v.843h-.58v-.359a1.431,1.431,0,0,0-1.576-1.383c-.691,0-1.2.291-1.2.955,0,1.783,3.706.76,3.706,3.165a2.052,2.052,0,0,1-2.323,2,2.236,2.236,0,0,1-1.8-.691l-.152.622h-.553s.083-.719.083-1.313" transform="translate(21560.762 -2653.284)"></path>
      <path id="Path_5294" data-name="Path 5294" d="M259.868,18.782h1.12V13.556h-1.245v-.5h2.462v5.723h1.119v.5h-3.457ZM261.5,9.948a.809.809,0,1,1-.815.8.8.8,0,0,1,.815-.8" transform="translate(21559.574 -2652.685)"></path>
      <path id="Path_5295" data-name="Path 5295" d="M268.018,13.464c2.059,0,2.944,1.176,2.944,3.262,0,2.2-1.119,3.346-2.944,3.346-1.991,0-2.959-1.216-2.959-3.262,0-2.115.913-3.346,2.959-3.346m1.645,3.262c0-1.838-.388-2.819-1.645-2.819s-1.659,1.009-1.659,2.9c0,1.811.4,2.82,1.659,2.82s1.645-1.037,1.645-2.9" transform="translate(21558.67 -2653.284)"></path>
      <path id="Path_5296" data-name="Path 5296" d="M273.414,19.382h1.12V14.155H273.29v-.5h2.391v1.548h.028a2.3,2.3,0,0,1,2.268-1.742,1.733,1.733,0,0,1,1.99,1.991v3.926h1.106v.5h-3.331v-.5h1.009V15.5c0-1.091-.236-1.479-.982-1.479-1.521,0-2.019,2.2-2.019,3.207v2.157h1v.5h-3.332Z" transform="translate(21557.27 -2653.284)"></path>
    </g>
    <g id="Group_5755" data-name="Group 5755">
      <path id="Path_5297" data-name="Path 5297" d="M61.52,32.844h.845V35h2.3V32.844h.845v5.192h-.845V35.847h-2.3v2.188H61.52Z" transform="translate(21593.297 -2658.221)" fill="#980321"></path>
      <path id="Path_5298" data-name="Path 5298" d="M70.858,32.8h.783l2.118,5.226h-.894l-.488-1.253H70.1l-.495,1.253H68.74Zm1.21,3.165-.833-2.076-.825,2.076Z" transform="translate(21591.57 -2658.211)" fill="#980321"></path>
      <path id="Path_5299" data-name="Path 5299" d="M77.317,32.844h2.144a1.854,1.854,0,0,1,1.389.519,1.64,1.64,0,0,1,.4,1.119V34.5a1.54,1.54,0,0,1-1.142,1.572l1.3,1.966h-1l-1.182-1.811H78.162v1.811h-.845ZM79.4,35.417a.874.874,0,0,0,.99-.869v-.014c0-.556-.371-.861-1-.861H78.162v1.743Z" transform="translate(21589.521 -2658.221)" fill="#980321"></path>
      <path id="Path_5300" data-name="Path 5300" d="M84.025,32.844h.935l1.45,3.988,1.444-3.988h.914L86.775,38.07h-.75Z" transform="translate(21589.291 -2658.221)" fill="#980321"></path>
      <path id="Path_5301" data-name="Path 5301" d="M92.913,32.8H93.7l2.118,5.226H94.92l-.488-1.253H92.156l-.495,1.253h-.867Zm1.21,3.165-.832-2.076-.825,2.076Z" transform="translate(21588.09 -2658.211)" fill="#980321"></path>
      <path id="Path_5302" data-name="Path 5302" d="M99.371,32.844h2.145a1.854,1.854,0,0,1,1.389.519,1.64,1.64,0,0,1,.4,1.119V34.5a1.54,1.54,0,0,1-1.142,1.572l1.3,1.966h-1l-1.182-1.811h-1.059v1.811h-.845Zm2.083,2.573a.874.874,0,0,0,.99-.869v-.014c0-.556-.371-.861-1-.861h-1.231v1.743Z" transform="translate(21586.545 -2658.221)" fill="#980321"></path>
      <path id="Path_5303" data-name="Path 5303" d="M106.8,32.843H108.6a2.487,2.487,0,0,1,2.557,2.582v.014a2.5,2.5,0,0,1-2.557,2.6H106.8Zm.845.831V37.2h.949a1.631,1.631,0,0,0,1.67-1.751v-.016a1.642,1.642,0,0,0-1.67-1.765Z" transform="translate(21585.225 -2658.221)" fill="#980321"></path>
      <path id="Path_5304" data-name="Path 5304" d="M119.922,32.844h.845v4.362h2.53v.83h-3.376Z" transform="translate(21582.852 -2658.221)" fill="#980321"></path>
      <path id="Path_5305" data-name="Path 5305" d="M127.987,32.8h.784l2.118,5.226H130l-.489-1.253h-2.275l-.495,1.253h-.866Zm1.21,3.165-.832-2.076-.825,2.076Z" transform="translate(21581.854 -2658.211)" fill="#980321"></path>
      <path id="Path_5306" data-name="Path 5306" d="M133.148,32.84h.914l1.148,3.847,1.183-3.862h.715l1.183,3.862,1.148-3.847h.887l-1.671,5.225h-.735l-1.182-3.728-1.183,3.728h-.728Z" transform="translate(21580.662 -2658.217)" fill="#980321"></path>
      <path id="Path_5307" data-name="Path 5307" d="M149.347,37.253l.508-.651a2.149,2.149,0,0,0,1.52.674c.522,0,.852-.266.852-.651V36.61c0-.37-.192-.57-1.086-.792-1.024-.266-1.6-.592-1.6-1.547v-.015a1.513,1.513,0,0,1,1.642-1.5,2.552,2.552,0,0,1,1.746.651l-.454.689a2.094,2.094,0,0,0-1.306-.533c-.5,0-.784.274-.784.614v.016c0,.4.22.577,1.148.814,1.017.266,1.54.66,1.54,1.518v.015a1.537,1.537,0,0,1-1.718,1.547,2.846,2.846,0,0,1-2.008-.829" transform="translate(21577.609 -2658.2)" fill="#980321"></path>
      <path id="Path_5308" data-name="Path 5308" d="M156.172,35.428v-.016a2.535,2.535,0,0,1,2.482-2.678,2.422,2.422,0,0,1,1.883.806l-.543.674a1.853,1.853,0,0,0-1.347-.645,1.7,1.7,0,0,0-1.588,1.828v.014a1.7,1.7,0,0,0,1.588,1.836,1.823,1.823,0,0,0,1.381-.666l.543.592a2.412,2.412,0,0,1-1.952.917,2.52,2.52,0,0,1-2.447-2.664" transform="translate(21576.43 -2658.195)" fill="#980321"></path>
      <path id="Path_5309" data-name="Path 5309" d="M164.016,32.844h.845V35h2.3V32.844H168v5.192h-.845V35.847h-2.3v2.188h-.845Z" transform="translate(21575.004 -2658.221)" fill="#980321"></path>
      <path id="Path_5310" data-name="Path 5310" d="M171.5,35.428v-.016a2.52,2.52,0,1,1,5.032-.014v.014a2.52,2.52,0,1,1-5.032.016m4.145,0v-.016a1.722,1.722,0,0,0-1.636-1.842,1.7,1.7,0,0,0-1.622,1.828v.014a1.715,1.715,0,0,0,1.635,1.836,1.691,1.691,0,0,0,1.623-1.82" transform="translate(21574.676 -2658.195)" fill="#980321"></path>
      <path id="Path_5311" data-name="Path 5311" d="M180.076,35.428v-.016a2.52,2.52,0,1,1,5.032-.014v.014a2.52,2.52,0,1,1-5.032.016m4.145,0v-.016a1.722,1.722,0,0,0-1.636-1.842,1.7,1.7,0,0,0-1.622,1.828v.014a1.715,1.715,0,0,0,1.635,1.836,1.691,1.691,0,0,0,1.623-1.82" transform="translate(21572.627 -2658.195)" fill="#980321"></path>
      <path id="Path_5312" data-name="Path 5312" d="M188.932,32.844h.845v4.362h2.53v.83h-3.376Z" transform="translate(21570.51 -2658.221)" fill="#980321"></path>
    </g>
  </g>
</svg>