<svg preserveAspectRatio="xMidYMid meet" data-bbox="-0.01 0 102.65 15.65" viewBox="0 0 102.64 15.64" xmlns:xlink="http://www.w3.org/1999/xlink" xmlns="http://www.w3.org/2000/svg" data-type="ugc" role="presentation" aria-hidden="true" aria-label="" alt="">
    <g>
        <defs>
            <linearGradient gradientUnits="userSpaceOnUse" y2="6.14" x2="15.64" y1="6.14" x1="3.47" id="9c38605f-9362-4a8c-895a-fdcc6c21a899_comp-kbgakxea_r_comp-kd5pcdw0">
                <stop stop-color="#01b0a3" offset="0"></stop>
                <stop stop-color="#194781" offset="1"></stop>
            </linearGradient>
            <linearGradient xlink:href="#9c38605f-9362-4a8c-895a-fdcc6c21a899_comp-kbgakxea_r_comp-kd5pcdw0" y2="10.85" x2="12.16" y1="10.85" x1="0" id="373367e1-5504-4c67-8864-82b93a04baba_comp-kbgakxea_r_comp-kd5pcdw0"></linearGradient>
        </defs>
        <path d="M33.84 14.94c-.27 0-.5-.2-.53-.47L31.87 3.86c-.02-.21-.22-.29-.36-.29-.15 0-.25.07-.31.22l-3.76 10.08c-.14.37-.47.6-.87.6s-.75-.23-.89-.59L21.92 3.8a.312.312 0 0 0-.31-.22c-.14 0-.34.08-.36.26L19.8 14.47c-.04.3-.31.5-.61.46-.3-.04-.5-.31-.46-.61l1.44-10.61c.06-.68.67-1.22 1.43-1.22.6 0 1.11.35 1.32.92l3.63 9.73 3.63-9.73c.21-.57.72-.92 1.32-.92.76 0 1.37.54 1.43 1.25l1.44 10.58c.04.3-.17.57-.46.61h-.07Z" fill="#194781"></path>
        <path d="M45.01 14.94H41c-2.88 0-5.32-2.44-5.32-5.32V7.81c0-2.88 2.44-5.32 5.32-5.32h4.01c.3 0 .54.24.54.54s-.24.54-.54.54H41c-2.3 0-4.24 1.94-4.24 4.24v.64h7.53c.3 0 .54.24.54.54s-.24.54-.54.54h-7.53v.09c0 2.3 1.94 4.24 4.24 4.24h4.01c.3 0 .54.24.54.54s-.24.54-.54.54Z" fill="#194781"></path>
        <path d="M52.57 14.94c-.3 0-.54-.24-.54-.54V3.58c0-.3.24-.54.54-.54s.54.24.54.54V14.4c0 .3-.24.54-.54.54Z" fill="#194781"></path>
        <path d="M57.26 3.57h-9.37c-.3 0-.54-.24-.54-.54s.24-.54.54-.54h9.37c.3 0 .54.24.54.54s-.24.54-.54.54Z" fill="#194781"></path>
        <path d="M59.51 14.94c-.3 0-.54-.24-.54-.54V3.03c0-.3.24-.54.54-.54s.54.24.54.54V14.4c0 .3-.24.54-.54.54Z" fill="#194781"></path>
        <path d="M68.67 14.94c-.3 0-.54-.24-.54-.54V3.03c0-.3.24-.54.54-.54s.54.24.54.54V14.4c0 .3-.24.54-.54.54Z" fill="#194781"></path>
        <path fill="#194781" d="M68.6 10.53v1.08h-9.09v-1.08h9.09z"></path>
        <path fill="#194781" d="M81.91 10.53v1.08h-9.37v-1.08h9.37z"></path>
        <path d="M71.38 14.94c-.07 0-.14-.01-.2-.04a.538.538 0 0 1-.3-.7l4.13-10.23c.34-.97 1.08-1.48 2.21-1.48.4 0 1.63 0 2.23 1.48l4.13 10.23c.11.28-.02.59-.3.7a.534.534 0 0 1-.7-.3L78.45 4.37c-.27-.67-.67-.8-1.23-.8s-.97.13-1.2.78L71.88 14.6a.54.54 0 0 1-.5.34Z" fill="#194781"></path>
        <path d="M85.23 13.65c-.4 0-.73.32-.73.73s.32.73.73.73.73-.32.73-.73-.32-.73-.73-.73Z" fill="#194781"></path>
        <path d="M102.38 14.86c-.14 0-.26-.12-.26-.26V2.83c0-.14.12-.26.26-.26s.26.12.26.26v11.78c0 .14-.12.26-.26.26Z" fill="#01b0a3"></path>
        <path fill="#01b0a3" d="M98.75 10.81v.52h-8.74v-.52h8.74z"></path>
        <path d="M100.22 14.86c-.1 0-.2-.06-.24-.17L95.85 4.05c-.35-.86-.95-.97-1.49-.97s-1.17.11-1.46.96l-4.15 10.65a.27.27 0 0 1-.34.15c-.13-.05-.2-.2-.15-.34l4.15-10.64c.45-1.3 1.58-1.3 1.95-1.3.62 0 1.5.13 1.97 1.3l4.13 10.64a.266.266 0 0 1-.24.36Z" fill="#01b0a3"></path>
        <path d="m15.12 5.86-.04.08c-.32.68-.9 1.18-1.67 1.45-.29.1-.63.13-.96.17-.48.05-.98.09-1.38.35-.37.24-.59.57-.64.97-.1.66.27 1.37.65 1.82.74.87 2.04 1.45 3.49 1.57.14.01.22.01.3-.18.51-1.2.77-2.47.77-3.78 0-.9-.12-1.78-.36-2.62-.01-.04-.07-.05-.09 0l-.07.16Zm-.69-2.22c-.31-.48-.67-.93-1.08-1.35A7.76 7.76 0 0 0 7.82 0C6.28 0 4.79.45 3.51 1.29l-.03.02v.04c-.07 1.02.43 2.15 1.27 2.87.62.53 1.42.84 2.19.85.37 0 .74-.07 1.09-.14.42-.08.85-.17 1.29-.12.45.05.84.29 1.25.54.15.09.31.19.47.27.51.27 1.16.26 1.79-.04.75-.35 1.32-1 1.55-1.73.03-.09.07-.18.04-.24Z" fill="url(#9c38605f-9362-4a8c-895a-fdcc6c21a899_comp-kbgakxea_r_comp-kd5pcdw0)"></path>
        <path d="M11.06 13.17c-.31-.1-.63-.09-.94-.08-.18 0-.37.01-.55 0-.6-.06-1.18-.37-1.55-.85-.47-.6-.61-1.38-.76-2.13-.1-.52-.2-1.05-.4-1.53-.62-1.46-1.78-2.37-3.19-2.5-.65-.06-1.33.03-1.97.28-.56.21-1.09.53-1.53.93-.1.09-.18.23-.18.54 0 2.09.81 4.05 2.29 5.53a7.76 7.76 0 0 0 5.53 2.29c1.53 0 3.01-.44 4.29-1.28l.05-.03v-.05c-.12-.48-.58-.95-1.1-1.11Z" fill="url(#373367e1-5504-4c67-8864-82b93a04baba_comp-kbgakxea_r_comp-kd5pcdw0)"></path>
    </g>
</svg>